<svg width="30" height="30" viewBox="0 0 30 30" fill="none" xmlns="http://www.w3.org/2000/svg">
<path d="M26.7188 15C26.7188 15.373 26.5706 15.7306 26.3069 15.9944C26.0431 16.2581 25.6855 16.4062 25.3125 16.4062H4.6875C4.31454 16.4062 3.95685 16.2581 3.69313 15.9944C3.42941 15.7306 3.28125 15.373 3.28125 15C3.28125 14.627 3.42941 14.2694 3.69313 14.0056C3.95685 13.7419 4.31454 13.5938 4.6875 13.5938H25.3125C25.6855 13.5938 26.0431 13.7419 26.3069 14.0056C26.5706 14.2694 26.7188 14.627 26.7188 15ZM4.6875 8.90625H25.3125C25.6855 8.90625 26.0431 8.75809 26.3069 8.49437C26.5706 8.23065 26.7188 7.87296 26.7188 7.5C26.7188 7.12704 26.5706 6.76935 26.3069 6.50563C26.0431 6.24191 25.6855 6.09375 25.3125 6.09375H4.6875C4.31454 6.09375 3.95685 6.24191 3.69313 6.50563C3.42941 6.76935 3.28125 7.12704 3.28125 7.5C3.28125 7.87296 3.42941 8.23065 3.69313 8.49437C3.95685 8.75809 4.31454 8.90625 4.6875 8.90625ZM25.3125 21.0938H4.6875C4.31454 21.0938 3.95685 21.2419 3.69313 21.5056C3.42941 21.7694 3.28125 22.127 3.28125 22.5C3.28125 22.873 3.42941 23.2306 3.69313 23.4944C3.95685 23.7581 4.31454 23.9062 4.6875 23.9062H25.3125C25.6855 23.9062 26.0431 23.7581 26.3069 23.4944C26.5706 23.2306 26.7188 22.873 26.7188 22.5C26.7188 22.127 26.5706 21.7694 26.3069 21.5056C26.0431 21.2419 25.6855 21.0938 25.3125 21.0938Z" fill="#061521"/>
</svg>
