<svg width="30" height="30" viewBox="0 0 30 30" fill="none" xmlns="http://www.w3.org/2000/svg">
<path d="M21.2213 11.0288C21.3793 11.187 21.468 11.4014 21.468 11.625C21.468 11.8486 21.3793 12.063 21.2213 12.2212L13.3463 20.0963C13.1881 20.2543 12.9736 20.343 12.75 20.343C12.5264 20.343 12.312 20.2543 12.1538 20.0963L8.77876 16.7213C8.62972 16.5613 8.54858 16.3498 8.55243 16.1312C8.55629 15.9126 8.64484 15.704 8.79943 15.5494C8.95402 15.3948 9.16258 15.3063 9.38117 15.3024C9.59976 15.2986 9.81131 15.3797 9.97126 15.5287L12.75 18.3061L20.0288 11.0288C20.187 10.8707 20.4014 10.782 20.625 10.782C20.8486 10.782 21.0631 10.8707 21.2213 11.0288ZM29.3438 15C29.3438 17.8369 28.5025 20.6101 26.9264 22.969C25.3503 25.3278 23.1101 27.1663 20.4891 28.2519C17.8681 29.3375 14.9841 29.6216 12.2017 29.0681C9.41926 28.5147 6.86345 27.1486 4.85744 25.1426C2.85143 23.1366 1.48532 20.5807 0.931868 17.7983C0.378411 15.0159 0.662465 12.1319 1.74811 9.51089C2.83375 6.88991 4.67223 4.64972 7.03105 3.07361C9.38986 1.4975 12.1631 0.65625 15 0.65625C18.8028 0.660716 22.4486 2.17336 25.1376 4.86237C27.8266 7.55138 29.3393 11.1972 29.3438 15ZM27.6563 15C27.6563 12.4968 26.914 10.0499 25.5233 7.96856C24.1326 5.88725 22.156 4.26507 19.8433 3.30715C17.5307 2.34923 14.986 2.09859 12.5309 2.58694C10.0758 3.07528 7.82069 4.28067 6.05069 6.05068C4.28068 7.82069 3.07529 10.0758 2.58694 12.5309C2.0986 14.986 2.34923 17.5307 3.30716 19.8433C4.26508 22.156 5.88726 24.1326 7.96857 25.5233C10.0499 26.914 12.4968 27.6562 15 27.6562C18.3555 27.6525 21.5725 26.3179 23.9452 23.9452C26.3179 21.5725 27.6525 18.3555 27.6563 15Z" fill="white"/>
</svg>
