
<svg width="36" height="36" viewBox="0 0 36 36" fill="none" xmlns="http://www.w3.org/2000/svg">
<path d="M24.2213 14.0288C24.3793 14.187 24.468 14.4014 24.468 14.625C24.468 14.8486 24.3793 15.063 24.2213 15.2212L16.3463 23.0963C16.1881 23.2543 15.9736 23.343 15.75 23.343C15.5264 23.343 15.312 23.2543 15.1538 23.0963L11.7788 19.7213C11.6297 19.5613 11.5486 19.3498 11.5524 19.1312C11.5563 18.9126 11.6448 18.704 11.7994 18.5494C11.954 18.3948 12.1626 18.3063 12.3812 18.3024C12.5998 18.2986 12.8113 18.3797 12.9713 18.5287L15.75 21.3061L23.0288 14.0288C23.187 13.8707 23.4014 13.782 23.625 13.782C23.8486 13.782 24.0631 13.8707 24.2213 14.0288ZM32.3438 18C32.3438 20.8369 31.5025 23.6101 29.9264 25.969C28.3503 28.3278 26.1101 30.1663 23.4891 31.2519C20.8681 32.3375 17.9841 32.6216 15.2017 32.0681C12.4193 31.5147 9.86345 30.1486 7.85744 28.1426C5.85143 26.1366 4.48532 23.5807 3.93187 20.7983C3.37841 18.0159 3.66246 15.1319 4.74811 12.5109C5.83375 9.88991 7.67223 7.64972 10.031 6.07361C12.3899 4.4975 15.1631 3.65625 18 3.65625C21.8028 3.66072 25.4486 5.17336 28.1376 7.86237C30.8266 10.5514 32.3393 14.1972 32.3438 18ZM30.6563 18C30.6563 15.4968 29.914 13.0499 28.5233 10.9686C27.1326 8.88725 25.156 7.26507 22.8433 6.30715C20.5307 5.34923 17.986 5.09859 15.5309 5.58694C13.0758 6.07528 10.8207 7.28067 9.05069 9.05068C7.28068 10.8207 6.07529 13.0758 5.58694 15.5309C5.0986 17.986 5.34923 20.5307 6.30716 22.8433C7.26508 25.156 8.88726 27.1326 10.9686 28.5233C13.0499 29.914 15.4968 30.6562 18 30.6562C21.3555 30.6525 24.5725 29.3179 26.9452 26.9452C29.3179 24.5725 30.6525 21.3555 30.6563 18Z" fill="#061521"/>
</svg>
