<svg width="85" height="85" viewBox="0 0 85 85" fill="none" xmlns="http://www.w3.org/2000/svg">
<g clip-path="url(#clip0_46_61)">
<path d="M64.1343 81C63.4881 79.9958 62.86 78.9916 62.1856 78.0015C61.8376 77.4579 61.4239 76.9588 60.9538 76.5152C57.7439 73.7411 55.2807 70.2143 53.7872 66.2543C53.7004 66.0234 53.5994 65.7964 53.4964 65.5434C51.4427 66.3949 49.7364 65.945 48.3229 64.2359C47.3677 64.7079 46.3863 65.0131 45.2939 64.7822C43.3755 64.3805 41.9842 62.6131 42.1659 60.671C42.2447 59.8536 42.4567 59.0462 42.5961 58.2328C42.6284 58.042 42.6869 57.799 42.5961 57.6544C42.0637 56.7021 41.4559 55.7934 40.7787 54.937C40.7787 55.3708 40.7888 55.8046 40.7787 56.2364C40.7443 57.337 40.8534 58.4698 40.6272 59.5322C40.0679 62.1693 38.3958 63.8342 35.7404 64.4829L35.0761 64.6476V65.451C35.0761 69.3339 35.0761 73.2168 35.0761 77.0997C35.0761 78.9193 34.0401 79.6584 32.4509 78.7687C30.8617 77.879 29.4926 77.8207 28.0205 78.855C27.6461 79.1431 27.1877 79.3026 26.7144 79.3095C26.241 79.3164 25.7782 79.1703 25.3954 78.8932C23.7173 77.7926 22.0716 77.7765 20.4016 78.9153C19.6221 79.4475 18.7861 79.4355 17.9784 78.9354C16.3185 77.895 14.7293 77.7705 12.9805 78.8872C11.8437 79.6142 10.7169 78.7968 10.7128 77.415C10.7027 73.4544 10.7128 69.4959 10.7128 65.5353V64.6557C10.3312 64.5633 9.96972 64.489 9.61431 64.3885C8.29554 64.0198 7.13341 63.2338 6.30379 62.1496C5.47417 61.0654 5.02221 59.7419 5.01629 58.3794C5.00149 42.3403 5.00149 26.3019 5.01629 10.2642C5.01682 8.61182 5.67607 7.02706 6.84951 5.85733C8.02296 4.6876 9.61485 4.02835 11.2762 4.0241C19.013 3.99197 26.7497 3.99197 34.4864 4.0241C36.0816 4.01816 37.6181 4.62204 38.7782 5.7109C39.9384 6.79976 40.6336 8.29036 40.7201 9.87457C40.8413 12.0738 40.7665 14.283 40.7807 16.4882V17.4804C41.1462 17.2976 41.3865 17.1912 41.6227 17.0586C43.3291 16.0906 45.0273 15.1105 46.7357 14.1484C49.3709 12.6642 52.0748 13.3953 53.5873 16.0183C56.6728 21.3586 59.7281 26.715 62.8318 32.0433C63.2383 32.7251 63.7547 33.3357 64.3604 33.8508C67.3187 36.3874 70.38 38.8055 73.2838 41.4004C77.9283 45.5417 79.7962 50.7836 79.1742 56.9293C78.8148 60.4922 78.4412 64.0551 78.0939 67.6201C78.0845 67.8899 78.1509 68.1569 78.2857 68.3913C78.7623 69.273 79.2833 70.1305 79.772 71.0022C80.1758 71.7272 80.0446 72.3619 79.4489 72.6993C78.8532 73.0367 78.2272 72.8278 77.8092 72.1189C77.2034 71.0825 76.5774 70.0482 76.0261 68.9797C75.844 68.6011 75.7687 68.1805 75.808 67.7626C76.1553 64.098 76.5242 60.4347 76.9146 56.7727C77.482 51.35 75.8423 46.7307 71.7613 43.0553C70.217 41.67 68.5993 40.368 66.9149 39.155C67.3995 39.9985 67.9447 40.816 68.3506 41.6956C68.7 42.4548 69.0493 43.2742 69.118 44.0917C69.2815 46.0097 68.4011 47.4818 66.7473 48.4659C65.3883 49.2693 64.001 50.0345 62.5349 50.876C62.7248 51.2235 62.9085 51.5348 63.068 51.8601C63.381 52.4968 63.2155 53.1234 62.6642 53.4267C62.1129 53.73 61.4707 53.5793 61.1093 52.9648C60.0781 51.2148 59.0684 49.4534 58.0803 47.6807C58.0024 47.5576 57.9506 47.42 57.9281 47.2763C57.9055 47.1326 57.9127 46.9858 57.9492 46.845C57.9857 46.7042 58.0507 46.5722 58.1403 46.4572C58.2298 46.3423 58.342 46.2467 58.47 46.1764C59.0233 45.849 59.6554 45.9956 60.035 46.5981C60.4995 47.3352 60.9195 48.1004 61.4061 48.9359C62.9711 48.0241 64.526 47.2047 65.984 46.2386C67.0401 45.5397 67.1713 44.174 66.4605 42.9308C64.6418 39.7562 62.8176 36.5836 60.9881 33.413C57.9107 28.064 54.8339 22.7183 51.7578 17.3759C50.6956 15.5262 49.4658 15.1848 47.6282 16.2311L30.4639 26.002C28.6182 27.0524 28.283 28.2755 29.3351 30.1092C30.3461 31.8699 31.3558 33.6299 32.3641 35.3893C32.4772 35.5901 32.5882 35.7809 32.6953 35.9797C33.1173 36.761 33.0002 37.3856 32.3681 37.7311C31.7361 38.0765 31.1687 37.8475 30.7385 37.1145C29.9429 35.7508 29.1413 34.3891 28.388 33.0013C28.1376 32.5414 27.8448 32.3988 27.3259 32.3988C22.1847 32.4168 17.0434 32.4108 11.9022 32.4088C10.1737 32.4088 9.54364 31.7762 9.54162 30.0489C9.54162 28.1209 9.54162 26.1915 9.54162 24.2607C9.54162 23.3811 9.96971 22.8549 10.6603 22.8549C11.3509 22.8549 11.8033 23.379 11.8073 24.2447C11.8073 25.9478 11.8073 27.6589 11.8073 29.356C11.8073 29.5991 11.8295 29.8441 11.8416 30.1192H26.5424C26.5424 29.2375 26.4394 28.382 26.5646 27.5605C26.7867 26.1205 27.6187 25.038 28.8929 24.3089C30.3993 23.4473 31.9219 22.6058 33.4081 21.7201C33.6484 21.5795 33.9351 21.2622 33.9392 21.0212C33.9816 18.9947 33.9634 16.9662 33.9634 14.8795H11.8093C11.8093 16.2613 11.8093 17.633 11.8093 19.0027C11.8093 19.5571 11.6074 19.9909 11.0884 20.2078C10.9252 20.2797 10.7467 20.3105 10.5687 20.2976C10.3906 20.2847 10.2185 20.2285 10.0675 20.1338C9.91647 20.0392 9.79117 19.909 9.70263 19.7549C9.61409 19.6007 9.56504 19.4272 9.55979 19.2498C9.5194 17.5487 9.51335 15.8355 9.56989 14.1404C9.59816 13.2728 10.3453 12.6401 11.2237 12.5718C11.4479 12.5558 11.6761 12.5718 11.9022 12.5718C19.2364 12.5718 26.5733 12.5718 33.9129 12.5718C35.6294 12.5718 36.2352 13.1744 36.2412 14.8674C36.2473 16.5605 36.2412 18.2637 36.2412 20.1315C37.0187 19.6876 37.677 19.3381 38.2989 18.9264C38.4383 18.834 38.5009 18.5408 38.5009 18.338C38.513 15.707 38.5433 13.076 38.5009 10.445C38.4564 7.93646 36.7279 6.28154 34.2118 6.27953C26.6514 6.2715 19.091 6.2715 11.5307 6.27953C9.03476 6.27953 7.29006 8.01278 7.29006 10.4831C7.29006 26.395 7.29006 42.3082 7.29006 58.2228C7.29006 60.6168 9.02063 62.3681 11.4297 62.3741C19.091 62.3929 26.7524 62.3929 34.4137 62.3741C36.6895 62.3741 38.41 60.7533 38.4867 58.4798C38.5715 55.9774 38.517 53.4689 38.515 50.9624C38.521 50.7876 38.4842 50.6139 38.408 50.4563C37.7666 49.2715 37.0461 48.1309 36.2513 47.042C36.2513 47.6445 36.2513 48.247 36.2513 48.8496C36.2271 50.4764 35.4577 51.2436 33.8281 51.2596C32.9719 51.2596 32.1137 51.2757 31.2575 51.2596C30.058 51.2295 29.2382 50.5045 29.1655 49.3276C29.1079 48.403 29.114 47.4757 29.1837 46.5519C29.2503 45.6522 29.9389 44.8589 30.7991 44.8107C32.2127 44.7303 33.6524 44.7886 35.1003 44.7886C35.0511 44.6505 34.9917 44.5163 34.9226 44.3869C34.4157 43.4932 33.8907 42.6095 33.3879 41.7137C32.9517 40.9385 33.0729 40.3078 33.7029 39.9564C34.3087 39.623 34.8903 39.8419 35.3325 40.5589C35.4234 40.7075 35.5062 40.8621 35.593 41.0148L43.9167 55.4873C44.9122 57.2185 46.2066 57.568 47.9554 56.5779C49.1367 55.9071 50.3038 55.2142 51.5013 54.5695C51.9294 54.3405 52.0829 54.0654 51.994 53.6135C51.9595 53.4661 51.9479 53.3144 51.9597 53.1636C52.2121 50.7897 51.3115 48.7813 50.0353 46.8532C49.2477 45.6642 48.5854 44.3929 47.8847 43.1477C46.6044 40.8702 47.2789 38.2613 49.4396 37.0121C51.6003 35.7628 54.2173 36.526 55.548 38.7794C56.2212 39.9242 56.8835 41.0764 57.5351 42.2359C57.9389 42.9549 57.8036 43.5976 57.214 43.931C56.6244 44.2644 55.9802 44.0475 55.5723 43.3506C54.9099 42.2279 54.2779 41.0871 53.6156 39.9644C52.9068 38.7594 51.6931 38.3577 50.6108 38.9482C49.5284 39.5386 49.1851 40.836 49.8798 42.0652C51.0025 44.0495 52.1192 46.0398 53.2965 47.994C53.8351 48.9004 54.1294 49.9298 54.1507 50.9825C54.2698 53.8605 54.3284 56.7466 54.5949 59.6186C55.1664 65.7623 57.8804 70.8656 62.5733 74.8824C64.0434 76.1437 64.6976 77.895 65.6023 79.4897C65.9718 80.1324 65.5114 80.6767 64.8895 81.01L64.1343 81ZM32.7579 76.453V64.6838H13.0593V76.4128C13.3867 76.2795 13.7062 76.128 14.0165 75.9589C14.8868 75.4187 15.7874 75.3323 16.6416 75.9087C18.4166 77.1137 20.1249 76.941 21.8474 75.8163C22.1504 75.6039 22.5115 75.4887 22.8821 75.4862C23.2528 75.4837 23.6154 75.594 23.9213 75.8023C25.7387 76.9671 27.5197 77.0937 29.3048 75.7581C29.3449 75.7268 29.3934 75.708 29.4442 75.7039C29.951 75.7039 30.4841 75.5934 30.9607 75.7039C31.5584 75.8525 32.1117 76.1758 32.7579 76.453ZM52.0728 56.9715L51.8931 56.8048C51.5134 57.1583 50.9177 57.4495 50.7945 57.8773C50.435 59.177 50.1612 60.4987 49.9747 61.8339C49.7849 63.0791 51.0853 64.0431 52.2545 63.5852C52.7048 63.4125 52.8866 63.1634 52.7553 62.6714C52.6272 62.1889 52.5361 61.6974 52.4827 61.2012C52.3313 59.8013 52.2061 58.3895 52.0667 56.9796L52.0728 56.9715ZM48.1735 59.2149H44.6941C44.5972 59.7933 44.4599 60.3276 44.4256 60.8678C44.4007 61.2708 44.5282 61.6685 44.783 61.9829C45.0378 62.2973 45.4015 62.5056 45.8028 62.5669C46.1874 62.6475 46.5885 62.5843 46.9293 62.3894C47.2701 62.1945 47.5268 61.8817 47.6504 61.5105C47.8928 60.7373 48.0159 59.9339 48.1735 59.2229V59.2149ZM31.4352 48.9379H33.9109V47.0259H31.4352V48.9379Z" fill="white"/>
<path d="M32.6649 59.8114C32.1358 59.8114 31.6068 59.8375 31.0797 59.8114C30.0701 59.7511 29.2623 59.0662 29.1896 58.0902C29.1079 57.0682 29.1079 56.0413 29.1896 55.0193C29.2351 54.5633 29.4474 54.1397 29.7861 53.8291C30.1249 53.5185 30.5665 53.3424 31.0272 53.3343C32.1076 53.2901 33.1919 53.2921 34.2743 53.3343C34.7606 53.337 35.2276 53.5237 35.5805 53.8564C35.9334 54.1891 36.1458 54.643 36.1745 55.1258C36.2452 56.0738 36.2452 57.0257 36.1745 57.9737C36.0957 59.0703 35.286 59.7812 34.1552 59.8234C33.6524 59.8435 33.1455 59.8234 32.6447 59.8234L32.6649 59.8114ZM33.933 55.5937H31.4553V57.5238H33.933V55.5937Z" fill="white"/>
<path d="M13.1238 53.3061C13.6286 53.3061 14.1335 53.2841 14.6363 53.3061C15.1591 53.3152 15.6584 53.524 16.0306 53.8894C16.4028 54.2547 16.6194 54.7485 16.6354 55.2683C16.6778 56.1199 16.6758 56.9735 16.6354 57.823C16.626 58.3439 16.4136 58.8408 16.0428 59.2087C15.6721 59.5767 15.1721 59.787 14.6484 59.7953C13.6165 59.8314 12.5806 59.8314 11.5507 59.7953C10.3997 59.7551 9.58793 58.9176 9.54957 57.7608C9.5213 56.9574 9.52332 56.1541 9.54957 55.3507C9.58793 54.1597 10.4098 53.3423 11.6153 53.2981C12.1182 53.278 12.625 53.2981 13.1258 53.2981L13.1238 53.3061ZM14.3556 55.6138H11.8597V57.4997H14.3556V55.6138Z" fill="white"/>
<path d="M13.1218 51.2455C12.5927 51.2455 12.0616 51.2676 11.5346 51.2455C11.0112 51.2357 10.5122 51.0242 10.1426 50.6555C9.77306 50.2868 9.56188 49.7898 9.5536 49.2693C9.51725 48.4197 9.51523 47.5662 9.5536 46.7146C9.56717 46.1945 9.78315 45.6999 10.156 45.3351C10.5289 44.9702 11.0296 44.7634 11.5527 44.7584C12.5624 44.7283 13.5721 44.7303 14.5817 44.7584C15.7691 44.7865 16.6011 45.616 16.6475 46.811C16.6758 47.5862 16.6738 48.3655 16.6475 49.1407C16.6112 50.4101 15.7711 51.2235 14.4868 51.2576C14.0325 51.2696 13.5801 51.2576 13.1258 51.2576L13.1218 51.2455ZM14.3334 48.968V47.052H11.8556V48.968H14.3334Z" fill="white"/>
<path d="M22.8549 51.2416C22.3259 51.2416 21.7968 51.2697 21.2698 51.2416C20.7729 51.2243 20.3009 51.0211 19.9482 50.6725C19.5955 50.324 19.3881 49.8558 19.3675 49.3617C19.3231 48.462 19.3231 47.5542 19.3675 46.6584C19.3858 46.1511 19.6003 45.6704 19.9665 45.3168C20.3326 44.9631 20.822 44.7638 21.3324 44.7605C22.3138 44.7284 23.2972 44.7384 24.2806 44.7605C25.5326 44.7806 26.3686 45.5639 26.4392 46.803C26.4849 47.6058 26.4849 48.4104 26.4392 49.2131C26.3706 50.4643 25.5447 51.2336 24.2907 51.2697C23.8121 51.2838 23.3335 51.2697 22.8549 51.2697V51.2416ZM24.1271 48.9741V47.0621H21.6756V48.9741H24.1271Z" fill="white"/>
<path d="M22.9095 59.8154C22.3804 59.8154 21.8513 59.8375 21.3223 59.8154C20.8124 59.8075 20.325 59.6051 19.9608 59.25C19.5967 58.8949 19.3836 58.4143 19.3655 57.9074C19.3251 57.0076 19.3231 56.0998 19.3655 55.2041C19.3849 54.709 19.5932 54.2398 19.9481 53.8921C20.303 53.5443 20.7778 53.3442 21.2758 53.3323C22.3077 53.2901 23.3416 53.2961 24.3735 53.3323C25.4902 53.3624 26.306 54.0653 26.4069 55.1679C26.4894 56.0851 26.4941 57.0075 26.4211 57.9255C26.3282 59.0582 25.4982 59.7692 24.3513 59.8134C23.8727 59.8314 23.3941 59.8134 22.9155 59.8134L22.9095 59.8154ZM21.6534 57.5238H24.1251V55.5977H21.6534V57.5238Z" fill="white"/>
<path d="M13.1904 36.1786C13.669 36.1786 14.1496 36.1605 14.6261 36.1786C15.1369 36.1826 15.6271 36.379 15.998 36.7282C16.369 37.0774 16.5931 37.5535 16.6253 38.0604C16.6808 38.9607 16.6808 39.8635 16.6253 40.7637C16.606 41.2721 16.3904 41.7536 16.0233 42.1078C15.6562 42.4621 15.1659 42.6619 14.6544 42.6657C13.5983 42.7059 12.5381 42.7079 11.482 42.6657C10.9713 42.6503 10.4861 42.44 10.1271 42.0784C9.76803 41.7168 9.56267 41.2317 9.55356 40.7236C9.5152 39.8479 9.51116 38.9682 9.55356 38.0926C9.57894 37.5857 9.79629 37.1072 10.1619 36.7533C10.5275 36.3993 11.0143 36.1961 11.5244 36.1846C12.0838 36.1565 12.6371 36.1806 13.1904 36.1786ZM14.3454 38.4701H11.8697V40.3922H14.3454V38.4701Z" fill="white"/>
<path d="M22.8852 42.6777C22.3562 42.6777 21.8251 42.7058 21.298 42.6777C20.7878 42.6654 20.302 42.4579 19.9417 42.0984C19.5814 41.7389 19.3743 41.2551 19.3635 40.7476C19.3252 39.874 19.3231 38.9943 19.3635 38.1186C19.3762 37.5971 19.5956 37.1017 19.9738 36.7402C20.352 36.3787 20.8584 36.1805 21.3829 36.1886C22.3663 36.1604 23.3497 36.1624 24.3311 36.1886C25.5427 36.2167 26.3666 36.9919 26.4413 38.197C26.4928 39.0223 26.4928 39.85 26.4413 40.6753C26.3645 41.8804 25.5487 42.6375 24.327 42.6837C23.8485 42.7038 23.3699 42.6837 22.8913 42.6837L22.8852 42.6777ZM21.6575 38.4601V40.3781H24.1372V38.4601H21.6575Z" fill="white"/>
<path d="M45.7642 22.7023C46.2852 22.7806 46.8123 22.8408 47.3272 22.9453C48.2621 23.1341 48.6882 23.6321 48.5509 24.3331C48.4136 25.034 47.7997 25.3192 46.8102 25.1264C45.2554 24.798 43.6334 25.0551 42.2583 25.848C40.8833 26.641 39.853 27.9132 39.367 29.4183C39.0621 30.3121 38.5047 30.6716 37.8222 30.4225C37.174 30.1956 36.9519 29.575 37.2164 28.7355C38.3654 25.0722 41.9699 22.5436 45.7642 22.7023Z" fill="white"/>
<path d="M46.1196 29.5829C44.8414 29.2998 44.0397 29.832 43.5652 31.0511C43.337 31.6395 42.7797 31.8283 42.1799 31.5934C41.5802 31.3584 41.356 30.8784 41.4893 30.2558C41.9255 28.2012 44.4618 26.7411 46.4952 27.3657C47.1273 27.5665 47.4786 28.0726 47.3494 28.6772C47.2202 29.2817 46.782 29.589 46.1196 29.5829Z" fill="white"/>
<path d="M46.5053 34.2445C45.8349 34.2445 44.9706 33.2222 44.9929 32.447C45.0013 32.1566 45.1238 31.8811 45.334 31.6795C45.5443 31.4779 45.8256 31.3662 46.1176 31.3684C46.7941 31.3684 47.6543 32.3847 47.6321 33.1599C47.6197 33.4499 47.4959 33.724 47.2863 33.9258C47.0766 34.1276 46.7971 34.2416 46.5053 34.2445Z" fill="white"/>
</g>
<defs>
<clipPath id="clip0_46_61">
<rect width="75" height="77" fill="white" transform="translate(5 4)"/>
</clipPath>
</defs>
</svg>
