<svg width="85" height="85" viewBox="0 0 85 85" fill="none" xmlns="http://www.w3.org/2000/svg">
<g clip-path="url(#clip0_206_52)">
<path d="M24.964 82.4999C23.9205 82.0126 23.403 80.7559 24.2768 79.8583C24.3701 79.7557 24.9894 79.3795 25.0403 79.3795H40.9642V64.1455L34.2791 57.4261C30.4529 57.1611 26.8049 57.751 23.0636 56.6738C16.4803 54.7845 11.5682 48.5268 11.127 41.6535C10.9913 39.465 10.9234 35.6522 11.127 33.515C11.2119 32.6687 11.5597 32.0275 12.4675 31.8908C14.283 31.6086 18.8896 31.7454 20.8494 31.8737C27.6787 32.3096 33.9143 37.2594 35.7892 43.8762C36.8411 47.5779 36.3236 51.2539 36.4848 55.0495L40.9557 59.5377V35.789C29.6894 34.9085 22.7327 22.9145 27.3055 12.4507C30.4614 5.25258 38.3852 1.16624 46.0969 2.8931C47.1404 3.12392 48.5996 3.39748 48.5826 4.77385C48.5571 7.3214 44.9601 5.73132 43.5263 5.62873C30.5123 4.73965 23.8017 21.1705 33.8888 29.6937C43.0512 37.4304 56.9391 29.9502 56.0143 18.0673C55.9125 16.7764 54.8436 14.3571 55.6326 13.4253C56.2943 12.6559 57.5499 12.767 58.1183 13.5962C58.4407 14.0579 58.6273 15.041 58.7461 15.6223C60.867 25.3936 53.9782 35.0453 44.0608 35.7805V73.1218L48.5317 68.6336C48.5572 62.9743 48.0057 58.11 51.1362 53.1346C55.7938 45.7399 63.9551 44.5345 72.0994 45.3039C72.9902 45.3894 73.6265 45.7313 73.8725 46.646C74.1779 54.5537 74.2882 61.8886 67.5861 67.1803C62.2583 71.3864 57.1766 70.7965 50.7375 70.8563L44.205 77.4048L44.0608 79.3624H59.9847C60.0271 79.3624 60.6634 79.7471 60.7567 79.8412C61.5712 80.7217 61.0791 82.0382 60.0695 82.4913H24.964V82.4999ZM33.3543 51.8779V47.2701C33.3543 41.7305 26.6692 35.0025 21.1548 35.0025H14.2406V41.9527C14.2406 47.4924 20.9342 54.2203 26.4401 54.2203H31.0213L24.2768 47.3385C23.0636 45.6116 24.7858 43.8677 26.508 45.0902L33.3543 51.8779ZM70.7929 48.4413C64.7101 48.2019 59.1957 48.2703 54.9539 53.2115C53.5286 54.87 51.6876 58.5118 51.6876 60.7089V65.4706L58.8394 58.3665C60.1035 57.5629 61.4693 58.8281 61.13 60.2045L54.0122 67.6591H58.9073C64.2775 67.6591 70.7929 60.7431 70.7929 55.3915V48.4413Z" fill="#F58CC0"/>
<path d="M44.095 11.3907C44.1628 11.4677 45.4608 11.9122 45.9275 12.2884C47.3442 13.4168 48.8289 17.204 46.3177 17.5032C44.4513 17.7254 44.8076 15.631 44.1459 14.8616C43.0175 13.5451 40.1585 14.3059 40.5403 16.2978C40.8457 17.905 43.0939 17.5545 44.3156 17.9733C48.2096 19.2984 48.9137 24.3679 45.3675 26.5393C45.0536 26.7359 44.1459 27.0095 44.1035 27.0608C44.0356 27.1462 44.1035 27.5822 44.0101 27.8216C43.4672 29.2835 41.5923 29.292 41.0493 27.8216C40.9645 27.5822 41.0239 27.1377 40.956 27.0608C40.9051 27.0009 39.9295 26.6846 39.5901 26.4794C37.7322 25.3253 36.0355 21.068 38.8775 20.9312C40.6082 20.8543 40.2603 22.8376 40.9051 23.5899C42.0674 24.9407 45.0197 24.1029 44.4683 22.034C44.061 20.5038 41.974 20.9056 40.7269 20.4782C36.9093 19.1787 36.1033 14.1264 39.5816 11.9721C39.9125 11.7669 40.8966 11.4506 40.9475 11.3907C41.0154 11.3053 40.9475 10.8693 41.0408 10.6299C41.5838 9.1595 43.4587 9.1595 44.0017 10.6299C44.0865 10.8693 44.0271 11.3138 44.095 11.3907Z" fill="#F58CC0"/>
<path d="M52.8926 6.91111C55.1408 6.48367 55.3274 10.3648 52.8671 9.99724C51.2383 9.75787 51.1704 7.23596 52.8926 6.91111Z" fill="#F58CC0"/>
</g>
<defs>
<clipPath id="clip0_206_52">
<rect width="63" height="80" fill="white" transform="translate(11 2.5)"/>
</clipPath>
</defs>
</svg>
