<svg width="91" height="90" viewBox="0 0 91 90" fill="none" xmlns="http://www.w3.org/2000/svg">
<rect x="0.333374" width="90" height="90" rx="20" fill="white"/>
<g clip-path="url(#clip0_203_217)">
<path d="M56.3611 75.9998C55.2275 75.7864 54.0863 75.6491 52.968 75.3366C46.1969 73.4003 41.0691 67.1263 40.856 60.0215C30.8059 65.716 18.1005 59.7318 16.092 48.4036C13.8248 35.5355 26.4998 25.2213 38.6802 29.9324C39.6388 30.306 40.5213 30.893 41.4647 31.1979C41.031 23.628 46.311 16.6756 53.5462 14.6478C66.145 11.1106 77.6407 22.576 74.2171 35.2001C73.0987 39.3091 70.2533 43.0673 66.533 45.1332L69.0741 47.1305C79.4134 57.0408 73.327 74.8944 58.9022 76.0074H56.3611V75.9998ZM49.2172 44.7673C53.2495 42.5337 57.9436 41.9772 62.3867 43.2808C63.0029 43.4637 64.5397 44.2261 64.9886 44.1346C65.5592 44.0279 67.5905 42.4956 68.1079 42.0382C76.4538 34.6741 74.0954 20.7921 63.7485 16.729C53.4016 12.6658 41.7614 21.2114 43.1917 32.5701C46.7522 35.566 49.1183 40.0561 49.2248 44.7597L49.2172 44.7673ZM32.3579 30.3898C21.6839 30.4966 14.5019 41.6646 18.7244 51.4682C23.4185 62.377 38.4291 63.7187 45.0785 53.8847C51.8724 43.8373 44.3861 30.2679 32.3579 30.3898ZM55.8514 44.3175C53.5081 44.5234 51.241 45.4687 49.2781 46.7036C48.814 51.491 46.524 55.9735 42.6211 58.8094C41.8983 71.6698 57.4339 79.194 67.3166 70.7931C78.5841 61.2183 70.8315 42.9911 55.8514 44.3175Z" fill="#F58CC0"/>
<path d="M56.9394 17.6822C69.5686 16.6149 76.2941 32.4485 66.708 40.6511C66.069 41.2 65.1788 41.9775 64.3191 41.8403C63.1399 41.6497 61.7933 41.017 60.4999 40.8112C58.2023 40.4529 56.0873 40.5139 53.8125 40.956C53.1354 41.0856 51.5909 41.7107 51.028 41.4439C50.6856 41.2838 50.1987 39.2332 50.0009 38.7224C48.9129 35.9475 47.2316 33.6911 45.1546 31.5794C44.4242 24.6575 50.0998 18.2616 56.9394 17.6822ZM52.0018 39.6829C56.1786 38.5242 60.5456 38.7605 64.6311 40.148C71.1283 35.635 71.25 26.0449 64.7528 21.4176C57.1828 16.0356 46.7599 21.5091 46.6762 30.657C47.2544 31.5108 48.0304 32.2121 48.6619 33.0355C50.1606 34.9794 51.4084 37.2892 52.0018 39.6829Z" fill="#F58CC0"/>
<path d="M31.3917 32.4483C41.6473 31.6097 48.9205 42.2975 44.1503 51.5064C39.2127 61.0279 25.4422 60.8373 20.7785 51.2244C16.8148 43.0522 22.3762 33.1877 31.3917 32.4483ZM31.0341 34.1482C25.9063 34.6666 21.5165 39.4998 21.1361 44.5845C20.3753 54.5481 32.1677 60.7382 39.8366 54.327C48.6314 46.9782 42.5907 32.9666 31.0341 34.1482Z" fill="#F58CC0"/>
<path d="M56.3383 46.2542C68.3133 45.2404 75.3203 59.3968 67.0808 68.255C60.0662 75.802 47.2163 72.3334 44.8427 62.3927C44.6677 61.6685 44.3177 60.3115 44.7361 59.7093C45.3143 58.886 46.5545 57.956 47.2772 57.0412C48.4869 55.5089 49.5444 53.565 50.1911 51.7201C50.4497 50.973 51.0127 48.1372 51.2714 47.8399C51.9029 47.1157 55.3265 46.3305 56.3383 46.2466V46.2542ZM55.9731 47.9466C55.3949 48.0076 52.9984 48.6175 52.6713 49.0062C52.2985 50.226 52.055 51.4686 51.6062 52.6654C50.6095 55.3488 48.9738 57.7578 47.0414 59.8465C46.8055 60.1057 46.2197 60.4106 46.1969 60.6775C47.3457 69.3832 57.51 73.7285 64.5778 68.3007C73.715 61.2797 67.8112 46.6888 55.9655 47.9466H55.9731Z" fill="#F58CC0"/>
<path d="M54.2462 35.2004C54.0483 35.1623 53.6908 34.804 53.6299 34.5982C53.3332 33.6224 54.5505 33.4318 55.2732 33.5081V26.0601C55.1515 25.4122 53.8962 26.1364 53.6299 25.2749C53.181 23.857 55.6232 24.1924 56.3612 24.1772C56.2166 21.8978 58.324 21.9359 58.0578 24.1772C60.8271 23.9027 62.5617 26.9749 60.964 29.2619C63.1095 30.1843 63.1095 33.4776 61.2455 34.6897C61.0553 34.8116 60.226 35.1928 60.0587 35.1928H58.0578C58.4305 37.7466 56.0797 37.6246 56.3612 35.1928C55.7449 35.1013 54.8091 35.3148 54.2462 35.1928V35.2004ZM57.0459 25.7704L56.9013 25.8696V28.7893C57.8219 29.1247 59.6783 28.9265 59.8685 27.7449C60.1728 25.8696 58.5218 25.6104 57.0459 25.7704ZM56.8481 33.5004H59.9369C60.0206 33.5004 60.5608 33.1345 60.6597 33.0125C61.3368 32.1892 60.7586 30.474 59.8152 30.474H57.0307L56.8481 30.657V33.5004Z" fill="#F58CC0"/>
<path d="M31.9395 54.8989C30.2125 52.1164 28.2572 49.4635 26.5226 46.6887C26.0433 45.9264 24.9858 44.8057 25.6021 43.9748L31.9319 36.0771C32.6699 35.6273 32.9666 35.9323 33.4687 36.4659C35.6218 38.7529 37.4097 41.7183 39.5779 44.0358C40.0496 44.6304 39.5095 45.1945 39.2128 45.7129C37.4705 48.7012 35.1501 51.5447 33.4003 54.5483C32.9362 55.1124 32.609 55.364 31.9319 54.8837L31.9395 54.8989ZM32.571 37.9829L27.5497 44.3331L32.4569 46.9479C34.2447 46.2465 35.9033 45.2326 37.5999 44.3407L32.571 37.9905V37.9829ZM36.3826 46.9479L32.571 48.7698C31.3689 48.4192 30.281 47.6035 29.1626 47.0851C29.0485 47.0317 28.8507 46.8259 28.7594 47.0012L32.571 52.7492L36.3826 46.9402V46.9479Z" fill="#F58CC0"/>
<path d="M55.4558 60.1435C55.4558 60.1435 54.9308 59.8691 54.9004 59.8234C54.5885 59.3202 54.5809 55.6306 54.8015 55.0055C55.1058 54.1288 55.9807 54.5328 56.7339 54.449C56.7567 53.557 56.4981 52.3678 57.7686 52.505C58.6359 52.5965 58.4001 53.8315 58.4305 54.449C59.0848 54.4337 60.5607 54.2355 60.4314 55.3104C60.4086 55.4933 60.0738 56.0193 59.9445 56.0193H56.3764V58.4435H59.8304C60.1651 58.4435 60.439 59.061 60.4847 59.366C60.5912 60.1283 60.5836 62.5601 60.439 63.2996C60.2184 64.4507 59.3663 64.0924 58.4305 64.1381C58.4305 64.8471 58.6131 66.0516 57.6393 66.0821C56.5589 66.1125 56.7567 64.9309 56.7339 64.1381C55.7829 64.2372 54.2842 64.2067 54.8776 62.8345C54.9308 62.7126 55.4177 62.4458 55.4634 62.4458H58.7957V60.1435C57.799 60.0216 56.4144 60.3112 55.4634 60.1435H55.4558Z" fill="#F58CC0"/>
</g>
<defs>
<clipPath id="clip0_203_217">
<rect width="59" height="62" fill="white" transform="translate(15.8334 14)"/>
</clipPath>
</defs>
</svg>
