<svg width="70" height="70" viewBox="0 0 70 70" fill="none" xmlns="http://www.w3.org/2000/svg">
<path d="M8.11024 12.6896C8.38065 10.5389 10.3242 8.70359 12.4859 8.51072L39.0657 8.5C42.7653 8.80921 44.7872 12.9697 42.6931 16.0434H51.6811C54.147 16.0434 56.1382 18.9962 55.9246 21.3229C55.7449 23.2822 53.7521 25.6839 51.6811 25.6839H48.3701C48.5176 25.8584 48.7235 26.4325 48.8618 26.5304C49.1921 26.7631 50.8791 27.2223 51.4552 27.481C61.4572 31.9615 65.0309 44.5134 58.9052 53.6335C52.4892 63.1868 38.8598 64.1618 30.9519 55.8837L18.1614 55.85C14.8028 55.4795 12.7732 51.9512 14.2927 48.876C14.6323 48.1887 15.1378 47.832 15.5649 47.232C13.566 45.5053 13.145 42.7026 14.7936 40.5733C14.9396 40.385 15.5941 39.8493 15.5649 39.6886C13.566 37.9634 13.145 35.1591 14.7936 33.0299C14.9396 32.8416 15.5941 32.3059 15.5649 32.1451C13.1235 30.1353 13.2096 26.3269 15.7892 24.4884C16.2562 24.1563 17.4961 23.5914 18.0431 23.5914H21.354C20.2217 21.9842 20.2263 19.7432 21.354 18.1421H12.3661C10.3857 18.1421 8.34532 15.823 8.10871 13.9509C8.07184 13.6586 8.07184 12.9866 8.10871 12.6942L8.11024 12.6896ZM12.4997 10.6216C9.36088 11.2798 9.50223 15.5888 12.6841 16.0419H38.9612C42.2552 15.5582 42.2337 11.067 38.9612 10.5956L12.4997 10.6216ZM24.9031 18.1665C21.7642 18.8248 21.9056 23.1338 25.0875 23.5868H51.3646C54.6586 23.1031 54.6371 18.612 51.3646 18.1405L24.9031 18.1665ZM44.8487 25.6839H18.1491C17.682 25.6839 16.7556 26.3529 16.4652 26.7294C15.0932 28.499 16.2716 30.9481 18.461 31.1364C22.4894 31.4839 27.0049 30.8639 31.0856 31.1395L31.4451 31.0782C35.1033 27.4627 40.1565 25.6212 45.3219 25.8921C45.3526 25.785 44.8948 25.6885 44.8487 25.6839ZM32.8494 54.7754C41.6392 63.571 56.9048 59.1686 59.4614 47.059C62.376 33.2457 47.1518 22.8245 35.303 30.6267C27.0971 36.0317 25.891 47.8121 32.8494 54.7754ZM29.5538 33.2274H18.1491C17.682 33.2274 16.7556 33.8963 16.4652 34.2729C15.0932 36.0424 16.2716 38.4915 18.461 38.6798C21.1144 38.9079 24.0842 38.4961 26.7729 38.6829L26.9389 38.614L28.3431 35.2158L29.5538 33.2274ZM26.3996 40.7723H18.1476C16.9522 40.7723 15.8629 42.4194 15.8798 43.5506C15.8967 44.6818 17.0029 46.2217 18.1476 46.2217H26.3996C26.0308 44.4216 26.1937 42.5832 26.3996 40.7723ZM18.1491 53.7651H29.2388L27.7823 51.0787L26.8328 48.377L26.6669 48.3096C24.012 48.4948 21.079 48.0877 18.4595 48.3127C15.044 48.6066 15.1961 53.3472 18.1476 53.7651H18.1491Z" fill="#138BBD"/>
<path d="M45.1145 36.6807C46.7492 36.8491 48.3425 38.5911 48.4623 40.2091C48.5268 41.0908 48.1535 41.7597 47.1671 41.6051C46.3359 41.4734 46.4742 40.731 46.3006 40.1631C45.8243 38.6033 43.8808 38.1594 42.5948 39.0503C41.063 40.1111 41.7713 42.2296 43.4874 42.548C44.8118 42.7929 45.6276 42.5664 46.8445 43.4971C49.7237 45.6982 48.5407 49.9185 45.1206 50.6318C45.3081 51.5686 44.4615 52.5222 43.5412 52.0278C42.7945 51.6268 43.0941 50.7451 42.9973 50.6318C42.9758 50.6073 42.5303 50.5277 42.3782 50.4634C41.0108 49.8817 39.7724 48.6679 39.6449 47.1111C39.565 46.1284 40.1919 45.2513 41.189 45.7824C41.9787 46.2034 41.5347 47.2703 42.3751 48.0571C44.185 49.7501 47.5912 47.7203 45.9503 45.5406C45.116 44.4323 43.6764 44.8165 42.5303 44.4431C38.4235 43.1083 38.8536 37.4446 43.0035 36.6807C42.7054 34.4841 45.411 34.4826 45.1145 36.6807Z" fill="#138BBD"/>
<path d="M49.1798 31.3645C49.8881 31.2038 50.7116 31.7687 51.3046 32.136C56.8941 35.6016 59.1449 42.548 56.7819 48.6862C56.4455 49.5603 55.9016 51.2211 54.6356 50.5048C53.6937 49.9721 54.3775 49.0444 54.6202 48.4168C56.5837 43.3379 55.5298 37.9222 51.0942 34.5454C50.5595 34.1382 48.808 33.2596 48.5944 32.8478C48.3163 32.3121 48.5637 31.5038 49.1798 31.3645Z" fill="#138BBD"/>
<path d="M32.5713 36.8126C33.2857 36.6488 33.9448 37.0269 33.9756 37.7877C33.9909 38.1443 33.1413 39.8526 32.9692 40.4573C31.6664 45.0479 33.2197 49.9692 37.0253 52.8653C37.7013 53.3797 39.6142 54.1818 39.651 54.9716C39.7094 56.1916 38.6217 56.1977 37.7474 55.812C31.3775 53 28.3677 43.5677 31.8477 37.5581C32.0182 37.2626 32.2118 36.8937 32.5713 36.8126Z" fill="#138BBD"/>
<path d="M45.3987 30.1074C47.1348 29.7553 47.1871 32.4111 45.4878 32.1739C44.3294 32.0132 44.2879 30.3324 45.3987 30.1074Z" fill="#138BBD"/>
<path d="M42.1369 55.253C43.6687 54.9056 44.0375 57.0363 42.7208 57.3027C41.1967 57.6119 40.9339 55.5255 42.1369 55.253Z" fill="#138BBD"/>
</svg>
