<svg width="91" height="90" viewBox="0 0 91 90" fill="none" xmlns="http://www.w3.org/2000/svg">
<rect x="0.666748" width="90" height="90" rx="20" fill="white"/>
<g clip-path="url(#clip0_203_235)">
<path d="M25.1884 72.9722C23.7062 72.8614 20.4359 72.1319 19.528 70.8854C19.3798 70.6731 19.2686 70.3961 19.1575 70.156L19.1853 54.4871C19.5188 53.5638 20.4081 52.9821 21.3067 52.6589C21.8255 52.4742 22.6315 52.1511 22.928 52.8528C23.3912 53.9423 22.1127 54.0254 21.4828 54.3671C20.8528 54.7087 20.51 54.8934 21.2326 55.4197C22.7056 56.4907 26.4205 56.6754 28.1992 56.4538C29.5148 56.2876 31.2842 55.9552 32.2199 54.9949C31.451 54.1362 30.0799 53.8038 28.9682 53.6469C28.227 53.5361 26.6521 53.6284 26.1519 53.3883C25.4756 53.0652 25.5312 51.9849 26.4576 51.8833C28.2919 51.6709 30.5245 52.2619 32.2291 52.8713V47.0173C32.2291 47.0173 32.5626 46.3987 32.6182 46.3156C33.2111 45.5308 34.4247 45.1615 35.3141 44.8198C34.8138 43.5456 34.2672 42.2807 33.9337 40.9511C30.2929 26.3163 44.6431 13.1219 59.0395 18.0525C59.5212 18.2187 61.4482 18.9481 61.6242 19.3082C62.004 20.1023 61.2814 20.6378 60.4939 20.4347C59.4842 20.1761 58.2891 19.4744 57.1311 19.1789C44.2632 15.9011 32.3866 27.7844 35.5364 40.5448C35.8699 41.8929 36.4073 43.1578 36.9724 44.4136C39.3069 44.2843 41.5952 44.1735 43.8556 44.8383C45.1248 45.2076 46.7182 45.8909 46.9313 47.359C47.0517 48.2084 46.7831 52.8436 46.9683 53.0559C54.5001 55.5305 62.4024 53.0929 67.0159 46.7126C71.8796 39.9816 71.685 31.0253 66.1543 24.7466C65.7282 24.2665 64.283 23.0754 64.0884 22.6414C63.7549 21.8843 64.5053 21.201 65.2557 21.5888C65.6355 21.7827 67.1085 23.3432 67.4698 23.7587C78.8091 36.7499 68.1183 57.1555 50.989 55.5674C49.6271 55.4381 48.3024 55.0411 46.9591 54.8195V60.2856C49.6179 59.113 52.8233 58.9006 55.6673 59.4454C57.1311 59.7224 59.7713 60.4518 59.9381 62.1969C60.1141 64.0713 60.1234 68.097 59.9381 69.9713C59.7991 71.384 57.9741 72.0858 56.7883 72.4182C56.0101 72.6398 54.778 72.9075 53.9905 72.9722H51.3503L48.1912 72.3443L46.0419 71.3471C45.4305 71.8365 44.6986 72.1042 43.9575 72.3443L40.9003 72.9722H38.2601C37.5653 72.806 36.8519 72.7598 36.1479 72.6121C35.0362 72.372 33.9708 71.9657 33.0166 71.3563C32.0809 71.9657 31.0155 72.3812 29.9224 72.6213C29.2183 72.7783 28.505 72.8152 27.8102 72.9814C26.9486 72.9352 26.0222 73.046 25.1699 72.9814L25.1884 72.9722ZM38.9178 45.8909C37.2132 45.974 35.3604 46.3156 33.9337 47.2759V47.6083C35.9626 49.021 39.1031 49.2241 41.5118 48.9009C42.7624 48.7347 44.4392 48.3654 45.3193 47.4421C43.7722 46.094 40.9189 45.7893 38.9178 45.8909ZM45.3193 49.575C41.6785 51.0154 37.5097 51.0523 33.8781 49.575V51.2739C36.4258 53.0005 40.4001 53.0652 43.309 52.2342C43.6703 52.1326 45.3101 51.5509 45.3101 51.1631V49.575H45.3193ZM45.3193 53.296C41.6229 54.6902 37.5653 54.7641 33.8781 53.296V54.9949C35.8885 56.5554 39.3625 56.7031 41.8175 56.3338C42.4011 56.2414 45.3101 55.5212 45.3101 54.8841V53.296H45.3193ZM45.3193 57.0078C41.7063 58.4574 37.4819 58.522 33.8781 57.0078V58.7067C33.8781 59.0391 35.3141 59.5931 35.6383 59.6947C38.0748 60.4518 41.9101 60.461 44.254 59.4084C44.6431 59.233 45.0414 59.0483 45.3101 58.7159V57.017L45.3193 57.0078ZM32.2291 57.1186C28.5142 58.5313 24.5121 58.522 20.788 57.1186V58.7067C20.788 59.0391 22.2239 59.5931 22.5481 59.6947C24.7437 60.3779 27.7268 60.4056 29.9409 59.8239C30.3115 59.7316 32.2291 59.0853 32.2291 58.7067V57.1186ZM32.2291 60.7288C28.7366 62.2523 24.2713 62.2708 20.788 60.7288V62.4277C22.8261 64.0251 26.3464 64.1451 28.8385 63.7666C29.978 63.5911 31.3861 63.231 32.2291 62.4277V60.7288ZM33.8781 60.7288V62.4277C34.434 63.0279 35.3789 63.3418 36.1664 63.545C38.4546 64.1267 41.9009 64.099 44.1057 63.1941C45.4676 62.6309 45.3842 62.28 45.3193 60.8488C41.6971 62.1138 37.4356 62.3631 33.8874 60.738L33.8781 60.7288ZM58.2706 62.1692C55.8804 60.6919 52.4249 60.5349 49.7105 61.1074C49.2751 61.1997 46.8757 61.8276 46.9683 62.4093C47.4964 63.0556 48.4599 63.3418 49.2473 63.545C51.6097 64.1359 55.2597 64.1082 57.4831 63.0464C57.7796 62.9079 58.5022 62.5847 58.2613 62.1692H58.2706ZM32.2291 64.4498C28.6717 65.9456 24.3454 65.9733 20.788 64.4498V66.1488C21.9738 67.1552 24.0304 67.543 25.5682 67.6261C27.699 67.7461 30.506 67.4784 32.2291 66.1488V64.4498ZM45.3193 64.4498C41.7804 65.9364 37.4078 65.9826 33.8781 64.4498V66.1488C36.0645 67.8292 39.8257 67.9031 42.4567 67.3491C43.4109 67.1552 44.7357 66.8413 45.3193 66.038V64.4498ZM46.9683 64.4498V66.1488C48.6637 67.5338 51.6004 67.7646 53.7404 67.6261C54.7039 67.5615 57.8074 67.0075 58.3076 66.1488C58.4651 65.8718 58.5022 64.4683 58.2428 64.4498C54.815 66.001 50.4053 65.9364 46.9683 64.4498ZM32.2291 68.1616C28.6069 69.6482 24.401 69.6666 20.788 68.1616V69.8605C22.8446 71.3933 26.1519 71.5502 28.6254 71.1994C29.2183 71.1163 32.2291 70.4053 32.2291 69.7497V68.1616ZM45.3193 68.1616C41.7063 69.6297 37.4912 69.6759 33.8781 68.1616V69.8605C34.61 70.553 35.7588 70.867 36.7315 71.0701C38.8993 71.5133 41.7434 71.4487 43.8371 70.6915C44.1057 70.59 45.3193 70.0083 45.3193 69.759V68.1708V68.1616ZM58.4003 68.1616C54.7873 69.6205 50.5721 69.6851 46.9591 68.1616V69.8605C47.6446 70.553 48.8582 70.8762 49.8124 71.0701C51.9617 71.5041 54.5649 71.4487 56.6586 70.7654C56.9736 70.6638 58.391 70.0729 58.391 69.759V68.1708L58.4003 68.1616Z" fill="#F58CC0"/>
<path d="M48.4691 44.1827C47.765 44.7459 46.7923 44.118 47.1351 43.2316L57.0384 28.6892C57.6128 27.7935 58.919 28.4029 58.5392 29.4186L48.4784 44.1827H48.4691Z" fill="#F58CC0"/>
<path d="M47.0517 28.2739C49.0343 28.0431 50.4424 30.1298 50.498 31.9119C50.5628 34.2109 48.71 36.6301 46.2365 35.5959C43.3183 34.3771 43.6981 28.671 47.061 28.2739H47.0517ZM48.1356 33.897C49.0343 33.0937 49.0157 31.0993 48.1727 30.2683C47.0332 29.1511 45.9864 30.6746 45.8752 31.8103C45.7548 33.0383 46.8201 35.0604 48.1356 33.8878V33.897Z" fill="#F58CC0"/>
<path d="M58.0483 36.8055C62.1986 36.5193 62.3283 44.3399 58.2336 44.4415C54.1388 44.543 53.9165 37.101 58.0483 36.8055ZM58.0483 38.4398C56.1955 38.6614 56.4456 42.8903 58.2336 42.7887C60.179 42.6779 60.0401 38.1905 58.0483 38.4398Z" fill="#F58CC0"/>
</g>
<defs>
<clipPath id="clip0_203_235">
<rect width="53" height="56" fill="white" transform="translate(19.1667 17)"/>
</clipPath>
</defs>
</svg>
