<svg width="91" height="90" viewBox="0 0 91 90" fill="none" xmlns="http://www.w3.org/2000/svg">
<rect x="0.666748" width="90" height="90" rx="20" fill="white"/>
<g clip-path="url(#clip0_203_325)">
<path d="M75.1668 32.3124V32.9903L74.6892 34.1595L70.9104 38.9328C70.9034 39.3133 73.6075 42.8553 74.0009 43.6025C74.6541 44.8546 74.5347 46.2451 73.3898 47.1514L54.3763 59.7282L44.8661 71.5648C42.492 73.6817 40.6237 71.4333 38.6992 70.0705C36.5218 71.3019 34.6043 72.9968 32.3075 73.9999H31.268L30.1231 73.481C25.375 67.165 21.1537 60.413 16.5882 53.9379L16.1738 52.8172C16.1879 52.6304 16.1457 52.4297 16.1738 52.2499C16.2651 51.5996 16.6795 50.7971 17.2204 50.389L34.5692 38.9536C40.5745 31.4822 46.4254 23.8517 52.5923 16.5187C53.688 15.82 54.8188 15.8408 55.9216 16.5187C62.1306 21.4512 68.6557 26.0309 74.6892 31.1432C74.8578 31.3992 75.1247 32.0287 75.1668 32.3124ZM69.9832 37.4109C70.4328 36.3248 73.4249 33.5922 73.4249 32.596C73.4249 32.4023 73.3195 32.1879 73.2072 32.0287L55.3386 18.2205C53.9198 17.2659 53.7653 17.6809 52.817 18.7809C48.1532 24.1976 44.0162 30.237 39.3313 35.6537L39.3875 35.8198L45.8424 31.6206C46.6853 31.3785 47.3034 32.513 46.594 33.0526L24.5884 47.4973C26.4988 51.2952 25.9088 55.363 23.0291 58.476C22.7832 58.7458 22.2284 58.9326 22.3197 59.2716L26.8219 65.8229C30.4392 63.8167 34.822 64.5569 37.8282 67.248C38.1092 67.5039 38.2918 68.0297 38.6641 67.9743L65.9516 50.0361L66.0078 49.8563C63.8163 45.9961 64.9963 41.1673 68.3397 38.3656L63.8655 31.7866C59.869 33.7997 54.868 32.9696 52.0585 29.476C51.904 29.4622 50.6748 30.493 50.3025 30.5829C49.3262 30.8043 48.7854 29.7251 49.7055 28.971C51.9812 27.1032 55.2122 25.6227 57.6003 23.8241C58.703 23.2983 60.1218 23.5889 60.9295 24.4882L69.5337 37.0996L69.9762 37.404L69.9832 37.4109ZM62.84 30.3823L59.7144 25.6988C59.1876 25.18 58.7732 25.2007 58.1551 25.4913C56.631 26.1969 55.0998 27.7604 53.5124 28.4591C55.6547 31.2193 59.7074 31.9111 62.847 30.3823H62.84ZM69.2457 39.9083C66.682 42.1151 65.8181 45.9753 67.5038 48.9639C68.3397 48.2375 72.1044 46.3489 72.4978 45.6087C72.7857 45.0691 72.6172 44.7647 72.3713 44.2873C72.0061 43.5609 70.0956 40.7038 69.5618 40.1366C69.4705 40.0397 69.4073 39.8806 69.2387 39.9083H69.2457ZM23.1976 48.6318L22.8605 48.6871L18.2529 51.7518C17.7893 52.3191 17.8876 52.6719 18.1967 53.2668C18.9553 54.7265 20.4232 56.2554 21.3012 57.6874C23.9843 55.4598 24.6726 51.7379 23.1976 48.6318ZM49.4737 63.0142L40.2585 69.0743C41.1154 69.5516 42.2322 71.1289 43.2928 70.5893L49.4737 63.0142ZM30.3198 66.4386C29.7298 66.5008 28.6832 66.7706 28.1565 67.0266C28.023 67.0889 27.7912 67.1442 27.8263 67.3517L30.8747 71.8346C31.1205 72.1113 31.5209 72.3188 31.8931 72.2911C33.7193 71.4472 35.3278 70.1327 37.0345 69.0605C35.5455 67.0197 32.8062 66.1688 30.3268 66.4386H30.3198Z" fill="#F58CC0"/>
<path d="M44.2619 37.6668C56.954 36.553 61.4703 53.8063 50.0847 58.9118C49.4104 59.2162 47.521 60.0809 47.3875 58.8772C47.2611 57.7426 48.3217 57.8326 49.0873 57.4798C59.6581 52.6095 54.6221 37.6045 43.5666 39.4793C34.0493 41.0981 32.8412 54.3044 41.8668 57.625C42.6675 57.9225 44.2198 57.9017 44.1074 58.9464C43.9529 60.3438 41.7474 59.4168 40.9467 59.0985C30.116 54.7679 32.5111 38.6975 44.2619 37.6668Z" fill="#F58CC0"/>
<path d="M42.2321 42.9452C43.0328 42.7446 45.0627 42.1012 45.1891 43.381C45.3156 44.6608 43.4472 44.1212 43.37 44.4879C43.3419 44.6401 44.9503 46.9714 45.0978 47.0959C45.4841 47.4418 45.6949 47.1582 46.0812 47.1513C47.7177 47.1167 48.8696 47.089 49.8038 48.5902C50.7379 50.0914 50.5904 51.8762 49.4175 53.2598C49.3472 53.5642 50.6115 54.5742 49.5299 55.183C48.4482 55.7918 48.1391 54.3252 47.9354 54.3044C47.226 54.8025 44.5149 55.5773 44.5289 54.1176C44.5359 52.7894 46.2287 53.5296 46.9591 52.8724L44.5219 49.2128C41.8318 49.8631 39.3172 48.0437 40.1952 45.2073C40.3076 44.8476 40.8554 44.1351 40.8484 43.9275C40.8414 43.6854 40.4832 43.4571 40.42 43.2219C40.0547 41.9006 41.9441 41.6169 42.2532 42.9521L42.2321 42.9452ZM43.3629 47.6009L41.9231 45.5671C41.3401 46.584 42.1478 47.8846 43.3629 47.6009ZM48.4341 51.7932C49.1435 50.209 48.2656 48.4519 46.3621 48.7355L48.4341 51.7932Z" fill="#F58CC0"/>
<path d="M32.7289 58.1027L28.3952 60.9252C27.6718 61.1466 27.0396 60.5309 27.2644 59.8114C27.4259 59.2857 31.282 57.1134 31.9633 56.6084C32.8483 56.5047 33.3751 57.4524 32.7289 58.1096V58.1027Z" fill="#F58CC0"/>
<path d="M62.2359 36.6433C63.156 36.4011 63.7952 37.3904 63.1349 38.096L58.9206 40.8632C57.8952 41.2091 57.2981 40.455 57.8249 39.5557L62.2429 36.6433H62.2359Z" fill="#F58CC0"/>
</g>
<defs>
<clipPath id="clip0_203_325">
<rect width="59" height="58" fill="white" transform="translate(16.1667 16)"/>
</clipPath>
</defs>
</svg>
