<svg width="90" height="90" viewBox="0 0 90 90" fill="none" xmlns="http://www.w3.org/2000/svg">
<rect width="90" height="90" rx="20" fill="white"/>
<g clip-path="url(#clip0_203_343)">
<path d="M16 69.522V20.4791C16.5777 19.0787 17.6684 18.1339 19.23 18H70.6508C72.478 18.1564 73.8411 19.5028 73.9989 21.3183V68.5704C73.8559 70.54 72.5098 71.847 70.5373 72H19.23C17.6684 71.8661 16.5765 70.9213 16 69.5209V69.522ZM72.293 28.0155V21.0978C72.293 20.7019 71.393 19.8054 70.9345 19.7446L19.2323 19.6884C18.9361 19.7244 18.4344 19.9505 18.212 20.1394C18.0724 20.2575 17.5889 20.9999 17.5889 21.0967V28.0144H55.2122C55.2633 28.0144 55.7093 28.1865 55.7831 28.236C56.3301 28.596 56.0078 29.7017 55.6662 29.7017H35.975V70.3082H70.7609C71.3102 70.3082 72.293 69.333 72.293 68.7897V29.7028H58.0495C57.7079 29.7028 57.3845 28.5971 57.9326 28.2371C58.0076 28.1876 58.4524 28.0155 58.5035 28.0155H72.293ZM17.5889 29.7028V68.9033C17.5889 68.9674 18.0429 69.7076 18.1507 69.8088C18.279 69.9292 19.0019 70.3094 19.1211 70.3094H34.1023L34.2725 70.1406V29.8715L34.1023 29.7028H17.5889Z" fill="#F58CC0"/>
<path d="M67.4171 60.3885V50.7827H40.964V60.3885H45.1005C45.5928 60.3885 45.9217 61.8625 44.8901 62.038C44.2273 62.1506 41.3787 62.1495 40.7148 62.038C39.7282 61.8713 39.3952 60.9637 39.3258 60.0064C39.1613 57.732 39.1205 53.1929 39.3421 50.9626C39.4483 49.895 39.9386 49.121 41.01 49.1221H67.4713C68.5978 49.1905 68.9747 50.0727 69.0544 51.1658C69.2219 53.4767 69.2474 57.8236 69.0492 60.1113C68.9716 61.0068 68.7194 61.6416 67.8992 61.9596L47.754 62.048C46.5784 61.8989 46.9665 60.3896 47.4496 60.3896H67.4171V60.3885Z" fill="#F58CC0"/>
<path d="M40.7062 33.2564C44.1466 33.4575 48.0137 32.9019 51.4055 33.2262C52.5665 33.3375 52.9871 34.0509 53.0741 35.2259C53.2278 37.3089 53.2268 40.9323 53.0741 43.0164C52.9912 44.1406 52.6221 44.8637 51.5076 45.0172C48.0926 44.7502 44.2436 45.3545 40.8801 45.0161C39.8233 44.9102 39.4118 44.1806 39.3187 43.118C39.1458 41.142 39.1458 37.0981 39.3187 35.1222C39.4077 34.1093 39.7344 33.4877 40.7062 33.2543V33.2564ZM51.452 34.853H40.9347V43.3925H51.452V34.853Z" fill="#F58CC0"/>
<path d="M56.7062 33.2564C60.1466 33.4575 64.0137 32.9019 67.4055 33.2262C68.5665 33.3375 68.9872 34.0509 69.0741 35.2259C69.2278 37.3089 69.2268 40.9323 69.0741 43.0164C68.9912 44.1406 68.6221 44.8637 67.5076 45.0172C64.0926 44.7502 60.2436 45.3545 56.8801 45.0161C55.8233 44.9102 55.4118 44.1806 55.3187 43.118C55.1458 41.142 55.1458 37.0981 55.3187 35.1222C55.4077 34.1093 55.7344 33.4877 56.7062 33.2543V33.2564ZM67.452 34.853H56.9347V43.3925H67.452V34.853Z" fill="#F58CC0"/>
<path d="M67.835 24.4971C67.6818 24.649 67.2494 24.7581 67.0212 24.7592L46.5844 24.7558C45.5005 24.6985 45.2451 23.3307 46.354 23.0596H67.3617C68.0529 23.1361 68.3105 24.0213 67.835 24.496V24.4971Z" fill="#F58CC0"/>
<path d="M29.8168 21.0686C33.6756 20.4893 34.3145 26.1922 30.8019 26.6557C26.8137 27.1821 26.3155 21.5939 29.8168 21.0686ZM30.0438 22.7525C28.6864 23.0112 28.8895 25.3576 30.6736 24.9538C31.9346 24.6681 31.5203 22.4702 30.0438 22.7525Z" fill="#F58CC0"/>
<path d="M23.1217 21.0706C26.0783 20.6859 27.5582 24.4856 25.1351 26.2145C23.9298 27.075 22.022 26.7375 21.1708 25.5328C19.936 23.7849 21.0085 21.3451 23.1217 21.0706ZM23.2318 22.75C22.0776 23.0031 22.0731 24.8703 23.3192 24.9828C25.2498 25.1572 24.9093 22.3833 23.2318 22.75Z" fill="#F58CC0"/>
<path d="M36.6287 21.071C40.3785 20.5603 41.1072 26.0642 37.7069 26.6389C33.6132 27.3307 33.0514 21.5592 36.6287 21.071ZM36.8557 22.7493C35.4109 23.0001 35.7446 25.3926 37.4799 24.9494C38.7227 24.6322 38.3175 22.4962 36.8557 22.7493Z" fill="#F58CC0"/>
<path d="M20.1664 38.0504L31.3785 38.0268C32.4907 37.9975 32.7892 39.5802 31.6077 39.7163L20.1369 39.7196C19.1143 39.4643 19.2471 38.3653 20.1664 38.0504Z" fill="#F58CC0"/>
<path d="M19.6636 48.8565C19.8293 48.6911 20.239 48.6158 20.4773 48.5944C23.9741 48.2794 27.9464 48.8441 31.4942 48.5978C32.4589 48.7114 32.6814 49.6889 31.8858 50.2288L20.2526 50.2895C19.5081 50.2929 19.1654 49.3525 19.6625 48.8565H19.6636Z" fill="#F58CC0"/>
<path d="M20.2833 32.7657C23.7902 32.9715 27.817 32.3979 31.2638 32.741C32.5588 32.8692 32.8346 34.1054 31.6077 34.4282L20.1369 34.4316C19.0711 34.1695 19.2516 32.9491 20.2833 32.7657Z" fill="#F58CC0"/>
</g>
<defs>
<clipPath id="clip0_203_343">
<rect width="58" height="54" fill="white" transform="translate(16 18)"/>
</clipPath>
</defs>
</svg>
