<svg width="70" height="65" viewBox="0 0 70 65" fill="none" xmlns="http://www.w3.org/2000/svg">
<path d="M36.6046 36.1407C37.0978 36.2219 37.8737 36.903 37.992 37.3929C38.33 38.7889 37.0317 39.3828 37.7139 40.5354C38.582 42.0019 41.5088 42.0049 42.2263 40.4834C42.7395 39.3966 42.0635 39.2558 41.8883 38.4399C41.6256 37.2184 42.3815 36.2448 43.6152 36.1361C45.9982 35.9264 48.6807 36.3045 51.099 36.1361C51.815 36.2647 52.1284 36.6122 52.1945 37.3362C52.68 42.6325 51.8304 48.682 52.1745 54.0564C51.6184 57.274 49.2845 59.1981 46.0412 59.4032L14.0656 59.3971C11.1941 59.1812 8.86488 57.3949 8.21652 54.5692C7.77404 43.5893 8.1566 32.5328 8.0214 21.5253C8.23035 18.2557 10.2108 15.9076 13.491 15.4024L30.2823 15.3978C30.6541 15.3106 31.3716 15.9872 31.3716 16.2596V22.8479C35.6229 21.9341 38.2732 26.6257 36.262 30.1831C35.3586 31.7812 33.1861 32.9721 31.3716 32.2435V36.1392H36.6046V36.1407ZM28.958 17.8072H13.6047C12.5015 17.8072 10.5565 19.6196 10.5565 20.7294V36.1407H15.6174C14.7985 33.5553 16.9709 30.8796 19.5874 30.6424C20.497 30.5597 21.511 30.6332 22.3668 30.9638C24.3487 31.7292 25.7254 34.0635 25.0493 36.1407H28.9595V30.8123C28.9595 30.4066 29.7784 29.6106 30.1917 29.5188C31.4101 29.2448 31.7127 29.9734 32.4948 30.0423C34.5197 30.2229 35.1973 26.3701 33.2968 25.346C31.914 24.6021 31.2579 26.4665 29.7077 25.3705C29.531 25.245 28.961 24.5608 28.961 24.3955V17.8072H28.958ZM28.958 42.4427V38.7185L28.7859 38.547H23.496C22.9952 38.547 22.2623 37.4541 22.1962 36.9689C22.081 36.1392 22.6526 35.8193 22.7432 35.2743C23.2241 32.3721 17.4441 32.3721 17.9266 35.2743C18.0172 35.8193 18.5872 36.1377 18.4735 36.9689C18.4059 37.4526 17.6731 38.547 17.1738 38.547H10.5611V53.9584C10.5611 55.0054 12.4447 56.8806 13.4941 56.8806H28.9626V51.8383C23.3608 53.3109 21.2006 44.7006 26.1248 42.6509C27.0805 42.2529 27.9608 42.1228 28.9626 42.4427H28.958ZM35.1681 38.547H31.3732V43.8755C31.3732 43.9398 30.9138 44.6944 30.8032 44.797C29.3129 46.2022 28.2896 44.0929 26.85 44.9822C25.3351 45.919 25.6209 49.2774 27.4139 49.5392C28.5646 49.7076 29.4788 48.2335 30.8047 49.4841C30.9138 49.5882 31.3747 50.3413 31.3747 50.4056V56.879H46.8432C47.9556 56.879 49.7762 54.9411 49.7762 53.8421V38.5455H44.7153C45.9413 45.9374 34.0127 45.9205 35.1696 38.5455L35.1681 38.547Z" fill="#138BBD"/>
<path d="M46.6665 31.6706L41.6333 33.5963C41.2522 33.6866 40.7606 33.4508 40.5178 33.1569C39.8572 31.2741 38.5236 29.0362 38.035 27.1504C37.8092 26.2778 37.9782 25.4084 38.8048 24.9277C39.6083 24.4609 40.0323 24.8696 40.6884 24.7502C42.824 24.3629 42.1341 20.2713 39.8633 20.06C38.4498 19.9284 38.5482 21.231 37.382 21.4453C36.1575 21.6704 35.6183 21.0366 35.1466 20.06C34.3338 18.3793 33.1984 15.624 32.6346 13.8545C32.3611 12.9973 32.2904 12.4676 33.1861 11.9977C38.0335 10.271 42.8286 7.80962 47.6713 6.14572C52.5141 4.48182 54.8079 6.74883 56.6117 10.9354C58.2018 14.6259 59.7521 18.5308 61.2116 22.2796C61.5481 23.1429 62.4023 24.5604 61.7878 25.3671C61.1732 26.1738 56.4734 27.3249 55.4102 28.1759C56.5057 29.2658 56.4258 31.3721 55.7743 32.6656C53.8815 36.4204 47.1828 36.3577 46.6665 31.6706ZM52.8382 9.02502C51.8565 8.08056 50.3693 7.8234 49.0833 8.23975L35.2864 13.8621L37.1239 18.4956C41.3291 15.4985 45.9567 20.7106 44.0055 24.9522C43.414 26.238 42.1218 27.1565 40.6868 27.2039L42.0696 30.7537C42.317 30.9741 46.6327 28.6933 47.6145 28.8296C48.3965 28.9367 49.1478 29.6761 49.2016 30.472C49.2277 30.8716 49.071 31.1578 49.1278 31.5604C49.4305 33.7019 53.5696 33.1615 53.7985 30.8134C53.9322 29.4464 53.2254 29.7005 52.7123 28.9168C52.1115 27.9999 52.4342 26.8014 53.3745 26.2641L59.2051 23.994L53.6249 10.1333C53.459 9.81487 53.0887 9.26687 52.8382 9.02655V9.02502Z" fill="#138BBD"/>
</svg>
