<svg width="85" height="85" viewBox="0 0 85 85" fill="none" xmlns="http://www.w3.org/2000/svg">
<g clip-path="url(#clip0_46_35)">
<path d="M0 30.232C0.390274 28.7754 0.955729 27.4185 2.11547 26.3759C3.37101 25.221 5.02058 24.5877 6.7278 24.605C8.83218 24.605 10.941 24.605 13.0365 24.605H70.072C73.3583 24.605 75.8796 26.2852 76.7688 29.1385C77.001 29.9292 77.1167 30.7494 77.1125 31.5734C77.1391 37.9265 77.128 44.2817 77.1236 50.6347C77.1236 50.9092 77.1856 51.2722 77.0393 51.4404C76.7244 51.8035 76.3275 52.2373 75.8995 52.3259C75.3252 52.4476 74.8351 52.0536 74.7043 51.4272C74.6455 51.0732 74.6232 50.7142 74.6378 50.3558C74.6378 44.1961 74.6378 38.0357 74.6378 31.8745C74.6378 28.6471 73.0855 27.0798 69.868 27.0798H7.0959C4.65668 27.0798 3.01797 28.2663 2.57448 30.3803C2.50754 30.7602 2.47931 31.1458 2.49022 31.5314C2.49022 43.715 2.49022 55.8979 2.49022 68.08C2.49022 70.8072 4.15775 72.4939 6.8675 72.4939C27.9793 72.4939 49.0903 72.4939 70.2006 72.4939C72.9348 72.4939 74.6023 70.8515 74.6156 68.1177C74.6356 64.4719 74.6156 60.8239 74.6156 57.1781C74.6051 56.8749 74.6192 56.5714 74.6577 56.2705C74.7686 55.6064 75.1766 55.239 75.8507 55.2368C75.9969 55.2234 76.1444 55.2392 76.2844 55.2832C76.4245 55.3272 76.5544 55.3985 76.6666 55.493C76.7789 55.5876 76.8712 55.7034 76.9382 55.8338C77.0052 55.9643 77.0456 56.1067 77.057 56.2528C77.128 56.711 77.1169 57.1825 77.1435 57.6451C80.9753 58.0525 82.8136 55.3917 82.4477 52.607C81.6649 46.6679 81.033 40.7112 80.3411 34.761C79.616 28.5364 78.9042 22.3095 78.1591 16.0871C77.8775 13.7252 75.9062 12.2443 73.427 12.5055C70.9479 12.7667 68.4843 13.0722 66.0118 13.3622L49.454 15.2969C42.5059 16.1085 35.5578 16.9202 28.6098 17.7318C22.6788 18.421 16.7463 19.1035 10.8124 19.7794C9.50629 19.9255 8.3399 20.2775 7.42408 21.2957C6.8675 21.9155 6.11134 21.9177 5.59246 21.4086C5.07357 20.8995 5.10018 20.2199 5.61241 19.6222C6.91628 18.0993 8.64591 17.5171 10.584 17.298C17.6156 16.5055 24.6449 15.6688 31.6743 14.863C38.5692 14.0661 45.4625 13.2707 52.3544 12.4768C59.2286 11.6776 66.0894 10.9007 72.9481 10.0573C76.975 9.56145 80.2413 12.1536 80.687 16.1912C81.3966 22.6394 82.1838 29.0787 82.9378 35.5225C83.6141 41.3088 84.3215 47.0907 84.949 52.8815C85.0418 53.7358 84.9646 54.5999 84.7219 55.4243C84.4792 56.2487 84.0757 57.0171 83.5346 57.6854C82.9935 58.3537 82.3255 58.9087 81.5689 59.3185C80.8123 59.7283 79.9821 59.9849 79.1259 60.0735C77.1058 60.3081 77.1058 60.3081 77.1058 62.3822C77.1058 64.2616 77.1058 66.1454 77.1058 68.0181C77.077 72.2726 74.3362 74.9953 70.0742 74.9953H7.24669C3.38164 74.9953 1.20852 73.3617 0.106439 69.6318C0.0931344 69.5875 0.0354795 69.5521 0 69.5122V30.232Z" fill="white"/>
<path d="M22.6648 63.2126C26.9511 63.2126 31.2397 63.1994 35.5261 63.2348C36.0086 63.2353 36.475 63.4081 36.841 63.7218C37.5063 64.3858 37.0251 65.4926 36.0738 65.6742C35.8266 65.7034 35.5773 65.7115 35.3287 65.6985H9.77019C9.63049 65.6985 9.49301 65.6985 9.35553 65.6985C8.53284 65.6565 7.98291 65.1473 7.994 64.439C8.00509 63.7306 8.5528 63.2237 9.38657 63.2215C12.236 63.2082 15.0855 63.2215 17.9327 63.2215L22.6648 63.2126Z" fill="white"/>
<path d="M66.4332 41.2515C66.4416 43.3808 65.9678 45.4845 65.0473 47.4053C64.6481 48.2664 63.9718 48.5851 63.2733 48.273C62.5748 47.9609 62.3863 47.2548 62.7899 46.3627C64.3599 42.8962 64.3599 39.4282 62.7899 35.9588C62.3841 35.0623 62.5681 34.3739 63.2822 34.0529C63.9962 33.7319 64.6437 34.0529 65.0561 34.9228C65.9991 36.8977 66.4705 39.064 66.4332 41.2515Z" fill="white"/>
<path d="M62.5769 56.5674C64.26 56.5674 65.9452 56.5674 67.6305 56.5674C68.5774 56.5674 69.0785 57.0101 69.0918 57.7694C69.1051 58.5287 68.5663 59.0444 67.5995 59.0466C64.2319 59.0555 60.8628 59.0555 57.4922 59.0466C56.5454 59.0466 55.96 58.5375 55.9688 57.7827C55.9777 57.0278 56.5498 56.5696 57.5211 56.5652C59.2064 56.563 60.8916 56.5674 62.5769 56.5674Z" fill="white"/>
<path d="M14.6153 56.5696C16.2984 56.5696 17.9837 56.5696 19.6689 56.5696C20.6047 56.5696 21.1125 57.0123 21.1192 57.7827C21.1258 58.553 20.6069 59.0422 19.6978 59.0466C16.274 59.0599 12.8495 59.0599 9.42423 59.0466C8.54833 59.0466 7.97844 58.5021 7.99396 57.7716C8.00948 57.0411 8.57272 56.574 9.47745 56.5696C11.1893 56.5608 12.9012 56.5696 14.6153 56.5696Z" fill="white"/>
<path d="M46.5668 56.5674C48.2521 56.5674 49.9373 56.5674 51.6226 56.5674C52.5429 56.5674 53.0884 57.0212 53.1105 57.7583C53.1349 58.5287 52.565 59.0422 51.6182 59.0466C48.2476 59.0555 44.8778 59.0555 41.5087 59.0466C40.5308 59.0466 39.9875 58.5774 39.9875 57.7937C39.9875 57.0101 40.5197 56.5696 41.5132 56.5652C43.2073 56.563 44.8926 56.5674 46.5668 56.5674Z" fill="white"/>
<path d="M30.6321 56.5674C32.2885 56.5674 33.9449 56.5674 35.6036 56.5674C36.5704 56.5674 37.1425 57.0433 37.1359 57.8048C37.1292 58.5663 36.546 59.0466 35.5837 59.0488C32.2427 59.0488 28.9009 59.0488 25.5585 59.0488C24.5828 59.0488 24.0196 58.6061 24.0063 57.8336C23.9841 57.0278 24.5407 56.5718 25.5784 56.5674C27.2748 56.563 28.949 56.5674 30.6321 56.5674Z" fill="white"/>
<path d="M61.3441 41.1519C60.9582 42.5199 60.6522 43.8237 60.2131 45.0832C59.9227 45.9155 59.1643 46.19 58.4924 45.8646C57.8205 45.5392 57.6054 44.8906 57.9469 44.1159C58.3886 43.1935 58.6179 42.1842 58.6179 41.1618C58.6179 40.1395 58.3886 39.1301 57.9469 38.2078C57.601 37.4441 57.856 36.7645 58.5101 36.4635C58.6662 36.3846 58.8378 36.3411 59.0126 36.336C59.1875 36.3308 59.3613 36.3642 59.5218 36.4337C59.6823 36.5033 59.8254 36.6072 59.9411 36.7382C60.0567 36.8692 60.1421 37.0241 60.191 37.1917C60.6367 38.4734 60.956 39.8016 61.3441 41.1519Z" fill="white"/>
<path d="M55.898 41.132C55.7553 41.7247 55.576 42.308 55.3613 42.8786C55.3014 43.0268 55.2113 43.161 55.0969 43.2729C54.9825 43.3847 54.8461 43.4717 54.6964 43.5285C54.5467 43.5852 54.3869 43.6105 54.2269 43.6026C54.067 43.5948 53.9104 43.554 53.767 43.4829C53.1483 43.1818 52.9443 42.6904 53.0663 41.9843C53.1538 41.4343 53.1538 40.874 53.0663 40.3241C52.9554 39.6201 53.1638 39.1199 53.8002 38.8498C53.9365 38.7792 54.086 38.7377 54.2392 38.7278C54.3924 38.7179 54.546 38.7398 54.6902 38.7923C54.8345 38.8447 54.9662 38.9265 55.0772 39.0324C55.1881 39.1383 55.2758 39.2661 55.3347 39.4076C55.5628 39.9685 55.751 40.5448 55.898 41.132Z" fill="white"/>
</g>
<defs>
<clipPath id="clip0_46_35">
<rect width="85" height="65" fill="white" transform="translate(0 10)"/>
</clipPath>
</defs>
</svg>
