<svg width="85" height="85" viewBox="0 0 85 85" fill="none" xmlns="http://www.w3.org/2000/svg">
<g clip-path="url(#clip0_46_48)">
<path d="M34.6872 7.00005H51.3171C53.0296 7.00005 53.3212 7.2675 53.4925 8.98818C53.8882 12.9834 56.7 15.7928 60.5647 16.0555C61.9116 16.1455 62.3397 16.5975 62.342 18.0034C62.342 23.8802 62.3629 29.7571 62.3281 35.6363C62.3281 36.4197 62.5318 36.7416 63.2862 36.9711C67.617 38.2687 71.4069 40.9939 74.0663 44.7227C76.7257 48.4515 78.1054 52.9747 77.9907 57.5886C77.6552 69.7398 67.2852 79.1267 55.4827 77.903C50.2109 77.3586 45.7815 75.0178 42.2315 70.9919C41.7988 70.5019 41.5072 70.4428 40.9425 70.7552C39.1768 71.754 37.3925 72.7197 35.5666 73.5954C35.0539 73.8275 34.4731 73.847 33.9467 73.6498C26.7587 70.1753 20.0267 65.9813 14.3291 60.2323C11.4896 57.3684 9.02492 54.1969 7.8331 50.2301C7.35176 48.6858 7.08913 47.079 7.05321 45.4586C6.98147 36.3345 7.0185 27.208 7.02081 18.0815C7.02081 16.607 7.442 16.1597 8.90458 16.0508C12.7485 15.7644 15.5996 12.8319 15.8657 8.89114C15.9652 7.41424 16.4026 6.99768 17.8907 6.99768L34.6872 7.00005ZM39.9474 67.9339C35.9947 60.469 35.7818 53.0608 40.1788 45.9225C44.5758 38.7841 51.1644 35.7191 59.3243 36.0883V19.0093C54.5061 17.9348 51.6064 14.9502 50.5812 10.0675C50.4331 10.0533 50.3197 10.0296 50.2063 10.0296C39.9312 10.0296 29.6561 10.0248 19.381 10.0154C18.8557 10.0154 18.6868 10.2166 18.5988 10.6994C18.2919 12.2986 17.6061 13.7963 16.6016 15.0615C14.9123 17.2366 12.6906 18.491 10.0061 18.9904C9.99226 19.2886 9.9668 19.549 9.9668 19.8093C9.9668 28.3441 9.9668 36.8773 9.9668 45.4089C9.97165 46.2352 10.0569 47.059 10.2214 47.868C10.8994 51.2762 12.7138 54.0691 14.9609 56.5732C20.4155 62.6512 27.1799 66.8476 34.3077 70.5067C34.5038 70.6094 34.7316 70.629 34.9418 70.5611C36.6173 69.7067 38.2696 68.8215 39.9474 67.9339ZM57.4452 74.9563C62.0889 74.9658 66.5473 73.0942 69.8454 69.7508C73.1436 66.4074 75.0129 61.8644 75.0447 57.1152C75.1119 47.2337 67.2273 39.1273 57.5377 39.0965C52.897 39.0896 48.4422 40.9614 45.1467 44.303C41.8511 47.6446 39.9827 52.1845 39.9497 56.9306C39.878 66.8192 47.7509 74.9255 57.4452 74.9563Z" fill="white"/>
<path d="M30.0865 41.6834L39.3897 32.1546C40.4681 31.0493 41.241 30.8859 41.9793 31.6031C42.7175 32.3202 42.5601 33.1889 41.454 34.3202C38.1508 37.7 34.8477 41.0791 31.5445 44.4573C30.4129 45.6147 29.7903 45.61 28.6448 44.4408C27.011 42.7729 25.3802 41.1035 23.7526 39.4326C23.174 38.8385 23.0351 38.1521 23.4841 37.4302C23.6481 37.1452 23.9071 36.9301 24.2135 36.8245C24.52 36.7188 24.8534 36.7297 25.1527 36.8551C25.4945 37.0061 25.8001 37.2314 26.0483 37.5154C27.3766 38.8669 28.6865 40.2349 30.0865 41.6834Z" fill="white"/>
<path d="M63.4298 52.3129C63.4298 53.2596 62.8165 53.9697 61.9834 53.9839C61.1942 54.0075 60.6064 53.4182 60.4838 52.4762C60.1876 50.1993 58.4843 48.9378 56.5658 49.5768C55.9469 49.7872 55.4116 50.1976 55.0405 50.7461C54.6695 51.2947 54.4827 51.9517 54.5085 52.6182C54.5451 53.3181 54.8176 53.9835 55.2795 54.5012C55.7415 55.019 56.3644 55.3572 57.0425 55.4584C57.6419 55.5483 58.2575 55.5483 58.843 55.6951C60.0899 55.9918 61.2099 56.6923 62.0363 57.6923C62.8627 58.6923 63.3515 59.9384 63.4298 61.2453C63.6195 63.7328 62.113 66.2014 59.727 67.1624C59.1415 67.399 58.9471 67.6712 58.9633 68.2984C58.9888 69.3564 58.3848 69.9907 57.4892 69.9836C56.5936 69.9765 56.0058 69.3469 56.0474 68.2724C56.0752 67.6121 55.816 67.3777 55.2606 67.1458C53.0297 66.1991 51.8402 64.4358 51.5764 62.0074C51.4607 60.9447 52.0253 60.1684 52.9186 60.0784C53.761 59.9956 54.3812 60.611 54.5108 61.6666C54.7422 63.4677 55.8993 64.6275 57.4915 64.6322C58.2411 64.6348 58.964 64.3475 59.5153 63.828C60.0666 63.3084 60.4054 62.5949 60.464 61.8306C60.5225 61.0662 60.2964 60.3075 59.831 59.7065C59.3656 59.1054 58.6952 58.7065 57.9543 58.5897C57.3227 58.5378 56.6939 58.4533 56.0706 58.3365C54.8424 58.0261 53.7435 57.3221 52.9344 56.3273C52.1254 55.3326 51.6487 54.0992 51.5741 52.8076C51.5015 51.5462 51.822 50.2939 52.4894 49.2306C53.1568 48.1674 54.1368 47.348 55.2884 46.8905C55.8831 46.6538 56.0636 46.3698 56.0498 45.7473C56.0266 44.6894 56.6237 44.0574 57.5216 44.0645C58.4195 44.0716 59.005 44.7036 58.9657 45.7757C58.9402 46.4337 59.1971 46.6728 59.7548 46.8976C61.9325 47.7923 63.4483 50.0573 63.4298 52.3129Z" fill="white"/>
</g>
<defs>
<clipPath id="clip0_46_48">
<rect width="71" height="71" fill="white" transform="translate(7 7)"/>
</clipPath>
</defs>
</svg>
