<svg width="70" height="65" viewBox="0 0 70 65" fill="none" xmlns="http://www.w3.org/2000/svg">
<path d="M5.50107 32.8107V32.1234C5.74997 31.7835 5.90821 31.433 6.37067 31.3274C8.04227 31.4621 10.0396 31.1269 11.6682 31.3197C12.9772 31.4743 13.0848 33.4337 11.553 33.6158C10.6265 33.7276 7.3724 33.7459 6.48744 33.6066C6.01883 33.5332 5.79145 33.1306 5.50107 32.8107Z" fill="#138BBD"/>
<path d="M64.4989 32.1227V32.81C64.2085 33.13 63.9827 33.531 63.5125 33.606C62.626 33.7453 59.3735 33.7269 58.447 33.6152C56.9152 33.4315 57.0228 31.4722 58.3318 31.3191C59.9604 31.1278 61.9577 31.4615 63.6293 31.3268C64.0918 31.4324 64.25 31.7829 64.4989 32.1227Z" fill="#138BBD"/>
<path d="M40.3006 7.02985H27.971L20.3658 32.6956H36.2091C36.4734 32.6956 37.1802 33.5267 37.0619 33.8849L33.3268 52.1725L49.0565 25.1322H34.135C34.0198 25.1322 33.247 24.2444 33.4098 23.9566C34.0828 22.4443 34.5821 20.5599 35.3426 19.1149C35.6806 18.472 36.0063 18.0802 36.8222 18.3327C38.7503 18.9282 36.5226 21.6804 36.3797 22.8407H51.418C51.9465 22.8407 52.5288 23.8326 52.2553 24.3623L31.752 59.546C31.0714 60.6558 29.5765 60.293 29.5089 59.0103L34.4223 34.9871H18.5789C18.2025 34.9871 17.6079 34.3212 17.7047 33.8987L26.2394 5.13634L26.6374 4.8455L42.3778 4.79346C43.1521 5.07358 43.3012 5.57107 43.1245 6.34561C43.0046 6.86759 41.7218 9.96119 41.4344 10.3929C40.9996 11.0465 39.961 11.1827 39.4924 10.5276C38.8133 9.58157 40.1193 8.02635 40.3006 7.03138V7.02985Z" fill="#138BBD"/>
<path d="M10.1948 17.2539C10.5005 17.1926 10.7095 17.2049 10.9998 17.3166C11.6006 17.5478 14.7871 19.4045 15.2849 19.8163C16.4756 20.8021 15.543 22.2272 14.2539 21.8721L9.72309 19.2744C9.00098 18.6637 9.25602 17.4452 10.1948 17.2539Z" fill="#138BBD"/>
<path d="M59.1645 17.252C60.3937 16.9734 61.1926 18.2822 60.3414 19.2251L55.7445 21.8732C54.7382 22.2054 53.7595 21.1676 54.311 20.2185C54.8088 19.3629 58.2473 18.0036 59.1645 17.2535V17.252Z" fill="#138BBD"/>
<path d="M15.4861 43.2773C16.0485 43.8329 15.8856 44.6657 15.2895 45.1218C14.0604 46.0601 12.1214 46.7612 10.8047 47.6521C9.51416 47.9981 8.75671 46.4092 9.7692 45.5902C10.141 45.2887 13.8821 43.1594 14.2555 43.063C14.6888 42.9497 15.1543 42.9497 15.4877 43.2773H15.4861Z" fill="#138BBD"/>
<path d="M54.9056 43.0371C55.2436 42.9499 55.5017 43.0004 55.8244 43.0968C56.2054 43.2101 59.9097 45.3133 60.2308 45.5904C61.2509 46.469 60.4136 47.9783 59.1952 47.6523C57.8939 46.7553 55.9273 46.045 54.7105 45.122C53.9469 44.5418 53.9792 43.2744 54.9056 43.0371Z" fill="#138BBD"/>
<path d="M38.1942 13.4698C39.8719 13.1009 40.2468 15.9221 38.2833 15.7445C37.0173 15.6297 37.0219 13.7285 38.1942 13.4698Z" fill="#138BBD"/>
</svg>
