<svg width="70" height="65" viewBox="0 0 70 65" fill="none" xmlns="http://www.w3.org/2000/svg">
<path d="M10.4766 47.9218C10.6687 49.2642 12.2051 50.6725 13.5602 50.8133L32.5455 50.8409C33.8545 50.997 34.1019 52.5124 33.031 53.163L13.3128 53.2365C10.1709 52.7696 7.96305 50.175 7.93539 47.011V15.4902C8.03065 12.5145 10.0003 9.9582 12.9855 9.39795C14.1717 9.17446 15.3823 9.26937 16.5823 9.251C16.8926 4.43839 23.6436 4.44299 23.9585 9.251L37.3683 9.25865C37.6463 8.18102 37.8891 7.16156 38.8186 6.44212C41.2845 4.53177 44.8275 6.16812 44.8121 9.25253C46.5267 9.25406 48.226 9.11936 49.8269 9.82349C51.9149 10.7404 53.2885 12.7732 53.459 15.0341C53.8078 19.6446 53.1978 24.6945 53.4436 29.351C53.3238 30.3107 52.2268 30.8128 51.4524 30.2051C51.3434 30.1194 51.033 29.6648 51.033 29.5898V21.5121H10.4766V47.9233V47.9218ZM19.8917 8.13051C18.7747 8.38461 18.893 10.8292 19.0129 11.7048C19.2295 13.2875 21.1746 13.3717 21.4865 11.893C21.6002 11.3558 21.6032 9.87401 21.5279 9.31835C21.4081 8.44431 20.7935 7.92386 19.8917 8.13051ZM42.0143 8.37083C41.4351 7.8611 40.186 8.04632 40.0001 8.87444C39.9095 9.27702 39.9095 11.7461 40.0001 12.1487C40.2444 13.234 42.1142 13.1865 42.3723 12.0339C42.4645 11.6221 42.463 9.525 42.3908 9.08568C42.3616 8.91424 42.1372 8.47798 42.0159 8.37083H42.0143ZM10.4766 14.6943C10.2876 16.0138 10.6164 17.7404 10.4766 19.1058H50.8655L51.0376 18.9344V15.1535C51.0376 14.4968 50.4169 13.2783 49.9468 12.8008C48.5379 11.3649 46.6281 11.8471 44.8137 11.7736C44.554 16.6429 37.9045 16.5327 37.3683 11.7675L23.9585 11.7752C23.6574 16.5633 16.8895 16.5908 16.5823 11.7752C15.221 11.8609 13.7599 11.5195 12.4908 12.1165C11.5997 12.5359 10.6164 13.7115 10.4751 14.6958L10.4766 14.6943Z" fill="#138BBD"/>
<path d="M47.4425 32.5458C58.2649 31.7024 65.6304 43.1951 60.276 52.6397C55.1275 61.723 41.7316 61.5822 36.6892 52.4514C31.977 43.9191 37.7232 33.3035 47.4425 32.5458ZM48.0171 34.9521C39.4578 35.3761 34.5843 44.9539 39.3518 52.0947C44.0101 59.0718 54.765 58.363 58.4554 50.8303C62.1335 43.3221 56.4089 34.5357 48.0171 34.9521Z" fill="#138BBD"/>
<path d="M28.4218 25.2056C29.2837 25.0617 31.9739 25.0832 32.8758 25.1919C34.0281 25.3296 34.8977 26.2787 35.0206 27.4129C35.122 28.3497 35.1251 30.606 35.0206 31.5382C34.9254 32.3847 34.2954 33.2664 33.4904 33.568C32.6853 33.8695 29.8107 33.865 28.8566 33.77C27.9025 33.6751 26.976 33.1333 26.6042 32.2286C26.2616 31.3928 26.2616 27.866 26.5059 26.966C26.7502 26.0659 27.5322 25.3526 28.4218 25.2041V25.2056ZM32.6008 31.2505V27.7558L32.4287 27.5844H28.9134V31.2505H32.6008Z" fill="#138BBD"/>
<path d="M16.0921 25.2057C16.9187 25.0679 19.8148 25.0741 20.6645 25.1889C21.5786 25.3129 22.5804 26.2604 22.6941 27.1819C22.8078 28.1034 22.797 30.6781 22.691 31.6531C22.5942 32.541 21.909 33.317 21.0747 33.5972C20.242 33.8773 17.4795 33.8666 16.5285 33.7717C15.347 33.6538 14.3022 32.8747 14.164 31.6531C14.0718 30.8342 14.0395 27.7176 14.1901 26.9814C14.3406 26.2451 15.3193 25.3358 16.0921 25.2072V25.2057ZM20.2712 27.5845H16.5838V31.2506H20.2712V27.5845Z" fill="#138BBD"/>
<path d="M15.9769 37.4655C16.7851 37.3292 20.0684 37.3292 20.8765 37.4655C21.7646 37.6155 22.5957 38.5691 22.691 39.4432C22.797 40.4274 22.8124 43.0572 22.6803 44.017C22.5558 44.9278 21.5863 45.8202 20.6737 45.9181C19.6366 46.0283 17.2153 46.0283 16.1797 45.9181C15.1442 45.8079 14.2715 44.9017 14.164 43.9129C14.0564 42.924 14.0426 40.2912 14.1747 39.3391C14.2915 38.4941 15.1288 37.6093 15.9785 37.4655H15.9769ZM20.2712 39.8442H16.5838V43.5103H20.2712V39.8442Z" fill="#138BBD"/>
<path d="M31.7358 43.51C32.6914 43.7151 32.9941 45.4586 31.8772 45.8275C31.3778 45.9929 29.1132 45.9837 28.5094 45.9163C27.3355 45.7847 26.5259 44.7958 26.3907 43.6692C26.2816 42.7569 26.2754 40.0521 26.4997 39.2194C26.7241 38.3867 27.3786 37.658 28.2144 37.4881C28.9872 37.3305 32.1768 37.332 32.9926 37.4468C34.6673 37.681 34.4291 39.8087 33.0602 39.9128C32.8989 39.9251 32.8082 39.8439 32.7713 39.8439H28.9119V43.51C29.7216 43.6279 30.9891 43.3493 31.7358 43.51Z" fill="#138BBD"/>
<path d="M44.8152 27.5845H41.2999L41.1278 27.7559V31.5368C41.1278 31.6287 40.7253 32.0894 40.6101 32.1675C39.8956 32.6466 38.9016 32.2165 38.7341 31.396C38.5943 30.7102 38.6296 28.0621 38.7203 27.3105C38.8524 26.2222 39.7574 25.3221 40.8528 25.1904C41.7255 25.0864 44.5878 25.0619 45.3975 25.2287C46.5836 25.4721 47.2442 26.5084 47.3472 27.6442C47.4424 28.6805 47.4286 30.2725 46.0228 30.2296C44.617 30.1867 44.7768 28.5672 44.8137 27.5845H44.8152Z" fill="#138BBD"/>
<path d="M48.4718 38.6071C49.091 38.5505 49.6702 39.0893 49.7624 39.6786C50.0251 41.3716 49.5627 43.6218 49.7931 45.3775C49.893 45.7143 51.5016 47.0016 51.8427 47.4639C52.8644 48.8492 51.4509 50.256 50.0574 49.238C49.6057 48.9089 48.1 47.4027 47.7497 46.9496C47.5915 46.7445 47.447 46.5424 47.3748 46.2898C47.5515 44.254 47.0445 41.5124 47.3549 39.5623C47.4332 39.0694 48.0001 38.6485 48.4703 38.6056L48.4718 38.6071Z" fill="#138BBD"/>
</svg>
