<svg width="90" height="90" viewBox="0 0 90 90" fill="none" xmlns="http://www.w3.org/2000/svg">
<rect width="90" height="90" rx="20" fill="white"/>
<g clip-path="url(#clip0_203_253)">
<path d="M72 44.5012L64.1957 55.8366C63.4016 56.4668 63.0867 55.9128 62.628 55.3104C60.054 51.9174 57.8565 48.0189 55.3098 44.5774C55.0155 44.0373 55.4194 43.3241 56.0149 43.3241H58.5958V25.1404C58.5958 25.0988 59.1093 24.5657 59.2736 24.6557C61.9982 24.8565 65.0378 24.4133 67.7213 24.6557C68.0226 24.6834 68.6113 24.898 68.6113 25.2443V43.3241H71.1922C71.4386 43.3241 71.8288 43.6634 71.9863 43.8573V44.4943L72 44.5012ZM67.0436 26.2622H60.1909V44.342C60.1909 44.4182 59.7665 44.9306 59.7185 44.9306H57.5553L63.6686 53.8909L69.5766 44.9306H67.5228C67.4201 44.9306 67.0504 44.5566 67.0504 44.4528V26.2622H67.0436Z" fill="#F58CC0"/>
<path d="M18 49.9439C18.1095 49.8608 18.4039 49.4107 18.4724 49.4107H21.375V31.2201C21.375 31.0193 21.9021 30.5692 22.1623 30.6315C24.8458 30.8254 27.858 30.3822 30.5005 30.6315C30.9455 30.6731 31.3357 30.8254 31.3973 31.324C31.5822 32.7227 31.2672 34.5577 31.3699 35.998C31.1714 36.8705 29.8091 36.4827 29.8091 35.9149V32.238H22.9564V50.4286C22.9564 50.5948 22.3882 51.0172 22.2718 51.0172H20.3207L26.3314 59.8736L32.4447 51.0172H30.5963C30.302 51.0172 29.7543 50.4702 29.8022 50.1101C30.0761 46.7656 29.4394 42.8255 29.8022 39.5433C29.8707 38.9063 30.2609 38.4216 30.9386 38.7193C31.0276 38.7609 31.3905 39.0794 31.3905 39.1209V49.2584L31.5479 49.4176H34.2931C34.5669 49.4176 34.875 50.0339 34.7655 50.3178L26.7901 61.9925C26.4272 62.2487 25.9823 62.0202 25.7084 61.7224L18 50.4771V49.9439Z" fill="#F58CC0"/>
<path d="M50.0591 33.09H52.7495C53.1397 33.09 53.701 34.0525 53.2287 34.4264L45.4244 45.7272H44.5824L36.7781 34.4264C36.2989 34.0525 36.8671 33.09 37.2573 33.09H39.9478V19.2756C39.9478 19.0748 40.4338 18.4793 40.735 18.5832C43.4528 18.7771 46.4992 18.3339 49.1759 18.5832C49.3882 18.6039 49.5799 18.597 49.751 18.7494C49.8263 18.8186 50.0728 19.3241 50.0728 19.3864V33.0969L50.0591 33.09ZM48.4777 20.1827H41.5154V34.2117C41.5154 34.3156 41.1458 34.6895 41.0431 34.6895H38.9893L45.0548 43.5459L51.0175 34.6895H48.9637C48.861 34.6895 48.4914 34.3156 48.4914 34.2117V20.1827H48.4777Z" fill="#F58CC0"/>
<path d="M43.6035 49.4453C54.5773 48.3167 60.3278 61.8471 52.0033 68.9308C45.0959 74.8167 34.4026 69.9349 34.0261 60.8777C33.7934 55.3312 38.0857 50.0131 43.6035 49.4453ZM43.713 51.038C37.675 51.6889 34.0809 58.4887 36.3674 64.0629C39.2837 71.1744 49.0801 71.943 52.996 65.337C57.1035 58.4056 51.572 50.1932 43.713 51.038Z" fill="#F58CC0"/>
<path d="M45.842 54.5349H48.6351C49.2034 54.5349 49.4566 55.8229 48.5872 56.086C47.0948 56.3422 45.1438 55.8921 43.6993 56.1553C42.2548 56.4184 41.9604 58.4473 43.1037 59.2713C44.247 60.0953 45.9584 59.2851 47.355 59.9845C50.463 61.5425 49.2718 66.3481 45.842 66.3758C45.7873 67.089 46.109 68.6124 45.2122 68.8894C44.7672 69.0279 44.1511 68.5432 44.1511 68.1346V66.3758H41.4607C41.1458 66.3758 40.8104 65.8703 40.8035 65.5587C40.7898 65.0394 41.2279 64.8109 41.6661 64.7693C43.0352 64.6447 45.931 65.1502 46.9442 64.3469C47.7383 63.7168 47.7726 62.3458 47.0195 61.681C46.2117 60.9747 44.9795 61.3417 43.9937 61.2517C39.6945 60.8639 39.8519 54.5834 44.1511 54.5349C44.1717 53.6694 43.8431 51.5574 45.3149 52.0214C45.5819 52.1044 45.8352 52.513 45.8352 52.7761V54.5349H45.842Z" fill="#F58CC0"/>
</g>
<defs>
<clipPath id="clip0_203_253">
<rect width="54" height="53" fill="white" transform="translate(18 18.5)"/>
</clipPath>
</defs>
</svg>
