<svg width="91" height="90" viewBox="0 0 91 90" fill="none" xmlns="http://www.w3.org/2000/svg">
<rect x="0.333374" width="90" height="90" rx="20" fill="white"/>
<g clip-path="url(#clip0_203_212)">
<path d="M21.0122 20.5469L69.4352 20.5C74.1506 20.8752 77.9417 24.6433 78.3177 29.3494L78.2393 43.1863C77.785 44.2808 76.1401 44.1244 75.9678 42.9518C75.6858 38.574 76.3125 33.821 75.9678 29.4901C75.7015 26.0817 72.8503 23.2361 69.4352 22.986H21.2628C17.973 23.3143 15.2315 26.0973 14.9025 29.3807C14.1662 36.6666 15.4195 45.0782 14.8869 52.4891C15.2315 55.9914 17.8164 58.6337 21.2942 59.1184H47.8634C49.148 59.2435 49.383 60.9008 48.2393 61.4167L21.4195 61.4949C16.6258 61.0884 12.8503 57.2891 12.537 52.5048C13.007 44.9531 11.9417 36.6978 12.537 29.2399C12.8973 24.7683 16.5944 21.0316 21.0122 20.5469Z" fill="#F58CC0"/>
<path d="M64.9235 44.9844C74.6206 44.1401 81.4509 54.4123 76.8765 63.0271C72.7877 70.7195 62.0096 71.7514 56.4483 65.044C50.1193 57.4298 55.1167 45.8287 64.9392 44.9844H64.9235ZM65.0801 47.314C52.0932 48.471 53.7224 68.171 66.8034 67.1704C79.853 66.1698 78.3491 46.1257 65.0801 47.314Z" fill="#F58CC0"/>
<path d="M22.6258 27.5668C23.6598 27.4261 26.8399 27.3948 27.8425 27.5668C31.0383 28.0984 30.9914 32.1322 30.7407 34.6181C30.584 36.2755 29.4404 37.8077 27.7172 38.0422C26.4953 38.2142 22.6728 38.1829 21.6232 37.6982C20.7146 37.2761 19.8686 36.1816 19.7276 35.1966C19.5867 34.2116 19.5867 31.1941 19.7433 30.2716C19.9626 28.927 21.2786 27.7544 22.6101 27.5668H22.6258ZM22.9078 29.8964C22.5632 29.9746 22.1402 30.3342 22.0775 30.6781C21.9679 31.2723 21.9835 34.1178 22.0775 34.7745C22.1245 35.1497 22.3595 35.4624 22.7041 35.6031C23.2054 35.8064 26.4796 35.7908 27.1532 35.7126C27.6389 35.6501 28.1872 35.3217 28.3282 34.837C28.4692 34.3524 28.4692 31.5224 28.3908 30.9596C28.3282 30.5843 27.9835 30.0996 27.6232 29.9589C27.1846 29.7869 23.4718 29.7557 22.9235 29.8807L22.9078 29.8964Z" fill="#F58CC0"/>
<path d="M69.3255 34.0711C69.1689 34.2275 68.6519 34.3838 68.4169 34.4151C65.2368 34.7747 61.3987 34.1493 58.1402 34.4151C56.7459 34.1962 56.8242 32.1793 58.2812 32.0855C61.524 32.3669 65.3934 31.7102 68.5736 32.0855C69.5762 32.2105 70.0148 33.4144 69.3412 34.1024L69.3255 34.0711Z" fill="#F58CC0"/>
<path d="M32.1663 46.2822H40.9391C42.2394 46.4698 42.2394 48.3773 40.9391 48.5806C38.4013 48.9714 34.9235 48.3148 32.2916 48.5806C31.054 48.3929 30.9757 46.6262 32.1663 46.2822Z" fill="#F58CC0"/>
<path d="M58.0149 27.5513H65.6128C66.913 27.7389 66.913 29.6464 65.6128 29.8496C64.4535 30.0216 59.2995 30.0372 58.1402 29.8496C56.9026 29.662 56.8243 27.8952 58.0149 27.5513Z" fill="#F58CC0"/>
<path d="M20.4169 46.2822H28.0148C29.3151 46.4698 29.3151 48.3773 28.0148 48.5806C26.8555 48.7526 21.7015 48.7682 20.5422 48.5806C19.3046 48.3929 19.2263 46.6262 20.4169 46.2822Z" fill="#F58CC0"/>
<path d="M20.4169 50.9726C20.8712 50.8788 23.1271 50.8788 23.5501 51.0039C24.5997 51.3322 24.537 53.0834 23.3151 53.271C22.8138 53.3491 20.7459 53.3491 20.3073 53.2084C19.289 52.8957 19.336 51.2072 20.4169 50.957V50.9726Z" fill="#F58CC0"/>
<path d="M27.4665 50.9726C27.9209 50.8788 30.1767 50.8788 30.5997 51.0039C31.6493 51.3322 31.5867 53.0834 30.3647 53.271C29.8634 53.3491 27.7955 53.3491 27.3569 53.2084C26.3386 52.8957 26.3856 51.2072 27.4665 50.957V50.9726Z" fill="#F58CC0"/>
<path d="M34.5162 50.9726C34.9705 50.8788 37.2263 50.8788 37.6493 51.0039C38.6989 51.3322 38.6363 53.0834 37.4143 53.271C36.913 53.3491 34.8451 53.3491 34.4065 53.2084C33.3882 52.8957 33.4352 51.2072 34.5162 50.957V50.9726Z" fill="#F58CC0"/>
<path d="M41.5657 50.9726C42.02 50.8788 44.2759 50.8788 44.6989 51.0039C45.7485 51.3322 45.6858 53.0834 44.4639 53.271C43.9626 53.3491 41.8947 53.3491 41.4561 53.2084C40.4378 52.8957 40.4848 51.2072 41.5657 50.957V50.9726Z" fill="#F58CC0"/>
<path d="M65.6441 50.5194C66.3333 50.363 66.913 50.6601 67.1166 51.3324L67.0853 57.6802C66.9913 57.9772 63.7015 61.2762 63.2472 61.6202C61.9783 62.5896 60.6467 61.7609 61.2263 60.3381C61.5709 59.4782 64.5474 57.3831 64.7511 56.6795C64.9861 55.0535 64.5474 53.021 64.7824 51.4575C64.8451 51.0197 65.1741 50.6288 65.6127 50.5194H65.6441Z" fill="#F58CC0"/>
</g>
<defs>
<clipPath id="clip0_203_212">
<rect width="66" height="49" fill="white" transform="translate(12.3334 20.5)"/>
</clipPath>
</defs>
</svg>
