<svg width="90" height="90" viewBox="0 0 90 90" fill="none" xmlns="http://www.w3.org/2000/svg">
<rect width="90" height="90" rx="20" fill="white"/>
<g clip-path="url(#clip0_203_307)">
<path d="M63.0246 32.1297C64.4491 32.1093 65.593 33.1721 65.8596 34.4939C65.5719 38.8203 66.2737 43.6714 65.8737 47.9297C65.7403 49.3401 64.5123 50.5392 63.0246 50.512V69.1872C62.821 71.5105 60.9895 73.3092 58.5824 73.4932H31.4175C29.0456 73.3092 27.2421 71.565 26.9754 69.2962V50.512C25.4807 50.512 24.2526 49.3537 24.1193 47.9297C23.7193 43.6714 24.421 38.8135 24.1333 34.4939C24.386 33.1858 25.5579 32.1161 26.9684 32.1297V20.697C27.2421 18.4213 29.0526 16.684 31.4175 16.5H58.5824C60.8631 16.6771 62.6596 18.3123 62.9895 20.4994L63.0246 32.1297ZM61.1298 32.1297V20.5812C61.1298 19.7159 59.5298 18.2987 58.5824 18.3396H31.6561C30.6175 18.1693 28.8772 19.6614 28.8772 20.5812V32.1297H61.1298ZM26.7088 33.9965C26.1965 34.1532 26.0702 34.4598 26.0281 34.9436C25.6491 39.0316 26.3228 43.6714 26.0281 47.8207C26.0351 48.1886 26.2737 48.4952 26.6175 48.6315L62.9754 48.686C63.4035 48.7064 63.7614 48.4952 63.9228 48.1137L63.9789 34.8346C63.9719 34.4667 63.7333 34.1601 63.3895 34.0238L26.7088 33.9965ZM61.1298 50.512H28.8772V62.4625H61.1298V50.512ZM61.1298 64.3021H28.8772V69.412C28.8772 70.2773 30.4772 71.6945 31.4246 71.6536H58.3438C59.3824 71.8239 61.1228 70.3318 61.1228 69.412V64.3021H61.1298Z" fill="#F58CC0"/>
<path d="M40.9333 20.2065L48.9614 20.186C50.0141 20.3427 50.007 21.8553 48.9614 22.012C46.6456 22.3595 43.4456 21.7735 41.0316 22.012C40.0281 21.8621 39.9649 20.479 40.9333 20.2065Z" fill="#F58CC0"/>
<path d="M52.3228 20.2066C53.7123 19.9136 53.9509 21.7669 52.8631 21.9985C51.4737 22.2915 51.2351 20.4383 52.3228 20.2066Z" fill="#F58CC0"/>
<path d="M32.6667 43.392V46.2059C32.6667 46.8327 30.9684 47.2687 30.7789 46.0832C31.0316 43.1126 30.421 39.5629 30.7719 36.6672C30.8491 36.0472 31.1719 35.8565 31.7754 35.802C33.2 35.6793 37.0246 35.6453 38.2035 36.2448C41.0105 37.6756 40.9123 41.7227 38.0491 43.0309C37.8877 43.1058 37.0947 43.392 36.9965 43.392H32.6667ZM32.6667 41.5524H36.7579C37.5439 41.5524 38.386 40.2919 38.3649 39.5425C38.3509 38.8407 37.4807 37.6484 36.7579 37.6484H32.6667V41.5524Z" fill="#F58CC0"/>
<path d="M49.4737 46.5737C49.1158 46.9212 48.4491 46.8735 48.0912 46.5465C47.7895 46.2671 47.3403 44.5706 47.1789 44.5365H42.8281C42.6596 44.5774 42.2316 46.2875 41.8456 46.5941C41.0596 47.2142 40.0421 46.5056 40.3158 45.5721C41.7965 42.7719 42.6105 39.0927 44.1123 36.381C44.5263 35.6316 45.3754 35.5634 45.8526 36.2993L49.7193 45.6607C49.7965 45.8992 49.6421 46.4102 49.4737 46.5737ZM43.5789 42.7038H46.4281C45.993 41.6886 45.6631 40.5984 45.1789 39.6037C45.1158 39.4674 45.2 39.3244 44.9474 39.3721L43.586 42.7038H43.5789Z" fill="#F58CC0"/>
<path d="M54.3719 39.8287L54.6175 39.7538L57.7614 35.9315C58.7017 35.4069 59.6632 36.4153 59.0456 37.2942L55.4596 41.6343C55.2632 43.0105 55.6421 44.7547 55.4246 46.0833C55.2632 47.0781 53.7684 47.0849 53.5579 46.1787C53.2702 44.9387 53.7403 42.956 53.5088 41.6343L49.9228 37.2942C49.3053 36.4289 50.2667 35.4069 51.207 35.9315L54.3649 39.8219L54.3719 39.8287Z" fill="#F58CC0"/>
<path d="M44.4982 65.2493C48.3719 64.6565 49.0456 70.2843 45.4105 70.7271C41.7754 71.17 40.9965 65.7875 44.4982 65.2493ZM44.7298 67.082C43.6351 67.3137 43.8807 69.1669 45.2702 68.8739C46.3649 68.6423 46.1193 66.7891 44.7298 67.082Z" fill="#F58CC0"/>
<path d="M33.3474 67.082C33.8175 66.9798 37.214 66.9798 37.6842 67.082C38.6175 67.2864 38.6105 68.7308 37.586 68.8875C36.9965 68.9761 33.8877 68.9829 33.3474 68.8671C32.4421 68.6695 32.4351 67.2728 33.3474 67.0752V67.082Z" fill="#F58CC0"/>
<path d="M52.3158 67.082C52.786 66.9798 56.1825 66.9798 56.6526 67.082C57.586 67.2864 57.579 68.7308 56.5544 68.8875C55.9649 68.9761 52.8561 68.9829 52.3158 68.8671C51.4105 68.6695 51.4035 67.2728 52.3158 67.0752V67.082Z" fill="#F58CC0"/>
</g>
<defs>
<clipPath id="clip0_203_307">
<rect width="42" height="57" fill="white" transform="translate(24 16.5)"/>
</clipPath>
</defs>
</svg>
