<svg width="91" height="90" viewBox="0 0 91 90" fill="none" xmlns="http://www.w3.org/2000/svg">
<rect x="0.666748" width="90" height="90" rx="20" fill="white"/>
<g clip-path="url(#clip0_203_289)">
<path d="M19.7961 50.4855C18.5038 50.3052 17.2741 48.9597 17.1713 47.6889V26.4065C17.3412 24.74 18.553 23.6451 20.2388 23.5H57.0136C58.4669 23.566 59.7771 24.5729 60.0543 26.002L60.0945 39.8355C71.1171 42.2803 77.2343 54.1263 72.6196 64.3762C72.2887 65.1149 71.7074 66.755 70.6968 66.4472C69.096 65.4623 67.1955 64.6444 65.6349 63.6242C64.0743 62.6041 65.1385 61.9929 65.6394 60.6034C68.6935 52.1476 59.947 44.2943 51.661 48.089C46.8495 50.292 44.6406 55.8324 46.4739 60.7133C46.8406 61.6895 47.878 62.5909 46.8182 63.4044C46.067 63.9848 42.4629 66.0251 41.5775 66.3725C41.2555 66.5 41.1258 66.5572 40.7771 66.4121C40.1063 66.1262 39.0912 63.5671 38.8453 62.824C37.4904 58.7742 37.6872 54.4605 39.1852 50.4811H19.7961V50.4855ZM58.2925 27.8928V26.1911C58.2925 25.9053 57.3042 25.1006 56.9018 25.2545L19.9616 25.3116C19.6396 25.3512 18.9599 26.046 18.9599 26.301V27.8928H58.2925ZM58.2925 29.6473H18.9599V31.4017H58.2925V29.6473ZM58.2925 33.1562H18.9599V47.6889C18.9599 48.0231 19.814 48.7926 20.2433 48.7354H39.9096L40.1957 48.5727L42.4226 45.332H39.4624C38.577 45.332 38.1701 44.1272 38.9616 43.6347L44.2649 43.5775L46.7825 41.823H44.6048C44.5779 41.823 44.1576 41.5988 44.1308 41.5724C43.6657 41.1107 43.8848 40.1829 44.6092 40.073C46.4695 39.7915 49.0183 40.2532 50.9724 40.0642C51.5492 40.007 52.1931 39.752 52.7968 39.6596C54.6123 39.3826 56.4636 39.2815 58.2925 39.5145V33.1518V33.1562ZM55.1623 41.1635C52.9131 41.2778 50.6728 41.8494 48.6784 42.8652L50.798 46.4884C52.2021 45.974 53.6375 45.4463 55.1623 45.4375V41.1591V41.1635ZM56.951 41.1635V45.4419C58.4758 45.4595 59.9201 45.9652 61.2974 46.5324L63.4304 42.8124C61.3779 41.9286 59.2181 41.2338 56.951 41.1635ZM47.2296 43.793C46.8048 43.4852 42.4986 47.6009 42.4226 48.4496L46.1609 50.4899C46.9703 49.2807 48.0166 48.2517 49.2508 47.4602L47.2296 43.793ZM64.8971 43.8018L62.8848 47.4514C64.0206 48.3045 65.0715 49.285 65.8943 50.4371L66.0418 50.4723L69.6817 48.3484C68.9126 47.2667 68.0675 46.2202 67.0703 45.3276C66.8109 45.0989 65.0759 43.683 64.8971 43.8018ZM44.0995 56.2942C44.104 54.7991 44.645 53.3876 45.1682 52.0113L41.4746 49.9314C40.4372 51.8882 39.8604 54.0868 39.7396 56.2942H44.0995ZM68.0138 56.2942H72.3737C72.2216 54.0736 71.609 51.9322 70.6387 49.9314L66.9049 52.0817C67.4862 53.4184 67.9154 54.8343 68.0138 56.2942ZM44.0995 58.0486H39.7396C39.8112 60.2692 40.5266 62.393 41.4165 64.4113L45.2085 62.3183C44.6316 60.964 44.1308 59.5393 44.0995 58.0486ZM72.3737 58.0486H68.0138C67.9199 59.5173 67.4549 60.9068 66.9093 62.2611L70.6253 64.3102C71.6984 62.393 72.1367 60.212 72.3692 58.0486H72.3737Z" fill="#F58CC0"/>
<path d="M63.0592 54.1747L59.5758 56.1798C59.8172 57.5649 59.5534 58.8533 58.4623 59.8074C55.6452 62.2699 51.3792 59.4029 52.6179 55.9379C53.5212 53.4139 56.7363 52.8643 58.6635 54.6364C59.5445 54.3461 61.6953 52.64 62.4823 52.6708C63.2693 52.7016 63.6047 53.625 63.0592 54.1747ZM57.3623 58.4531C59.0347 56.813 56.468 54.0955 54.7151 55.9071C52.9622 57.7188 55.7391 60.0449 57.3623 58.4531Z" fill="#F58CC0"/>
<path d="M48.7634 36.5815C49.528 36.432 54.0622 36.4364 54.8761 36.5639C55.8777 36.7178 56.0521 38.1425 54.9879 38.3052C54.0354 38.4503 49.6935 38.4503 48.7455 38.3052C47.7975 38.1601 47.7125 36.7882 48.7634 36.5815Z" fill="#F58CC0"/>
</g>
<defs>
<clipPath id="clip0_203_289">
<rect width="57" height="43" fill="white" transform="translate(17.1667 23.5)"/>
</clipPath>
</defs>
</svg>
