<svg width="85" height="85" viewBox="0 0 85 85" fill="none" xmlns="http://www.w3.org/2000/svg">
<g clip-path="url(#clip0_206_34)">
<path d="M78 27.4282V39.1305C77.5623 40.8249 76.5067 42.3186 74.786 42.8862L49.0911 48.6435C48.971 50.1842 49.207 51.8572 49.0825 53.3851C48.971 54.7764 48.6491 55.2714 47.2159 55.3824C44.7829 55.5702 40.2 55.6043 37.7927 55.3824C36.6041 55.2714 36.2093 54.7977 36.0849 53.6369C35.9132 52.045 36.1879 50.2567 36.0548 48.6435L10.3599 42.8862C8.63921 42.3229 7.58361 40.8249 7.14592 39.1305C7.48492 35.473 6.69107 30.9875 7.14592 27.4282C7.45917 24.9784 9.80209 23.2926 12.1965 23.3012L72.6791 23.2926C75.1765 23.2158 77.6696 24.8504 78 27.4282ZM49.0782 45.464L74.1209 39.7451C74.6058 39.4122 74.7603 38.7934 74.816 38.2343C75.0563 35.8315 75.0306 30.8894 74.8246 28.4567C74.756 27.6757 74.6058 27.0355 73.8463 26.677L11.776 26.5917C10.6775 26.7069 10.4114 27.4708 10.3256 28.4524C10.1196 30.8851 10.0896 35.823 10.3342 38.23C10.3986 38.8659 10.5874 39.5402 11.2053 39.8433L36.0076 45.4554C36.1278 44.4269 35.9819 42.9076 37.3121 42.6259C40.4789 42.8265 44.5554 42.1479 47.6193 42.5789C49.1297 42.7923 49.104 44.2306 49.0868 45.4597L49.0782 45.464ZM45.7569 45.7371H39.389V52.2071H45.7569V45.7371Z" fill="#F58CC0"/>
<path d="M11.5271 46.198C11.6773 46.3474 11.7674 46.5821 11.8403 46.7784C12.1793 53.9441 11.8961 61.1909 11.9862 68.3864C12.1536 69.5771 12.9303 69.7564 13.9902 69.8332H71.1558C72.2199 69.7564 72.9923 69.5729 73.1597 68.3864L73.194 47.2223C73.3571 45.3829 75.9532 45.2847 76.348 47.043V68.8047C76.0476 71.0837 74.3011 72.8036 71.9882 73.0042H13.295C10.8791 72.8335 9.13268 71.1861 8.79797 68.8047L8.81085 46.9193C9.08547 45.7883 10.729 45.4127 11.5228 46.2023L11.5271 46.198Z" fill="#F58CC0"/>
<path d="M51.7987 15.777C51.4812 15.4612 50.8375 15.3502 50.3999 15.3118C45.3922 15.7514 39.3847 14.7357 34.4972 15.3332C31.7766 15.6661 33.6604 18.6279 32.4074 19.7248C31.4591 20.5527 29.91 20.0833 29.7169 18.82C29.232 15.6831 30.558 12.6188 33.9436 12.1664C39.4405 12.4865 45.5295 11.6885 50.9577 12.1451C54.515 12.4481 55.8452 15.4484 55.4547 18.6919C55.2917 20.032 53.764 20.6125 52.7514 19.7248C51.7387 18.8371 52.7728 16.7416 51.8073 15.777H51.7987Z" fill="#F58CC0"/>
</g>
<defs>
<clipPath id="clip0_206_34">
<rect width="71" height="61" fill="white" transform="translate(7 12)"/>
</clipPath>
</defs>
</svg>
