<svg width="85" height="85" viewBox="0 0 85 85" fill="none" xmlns="http://www.w3.org/2000/svg">
<g clip-path="url(#clip0_46_34)">
<path d="M48.7857 35.1075V50.798C50.1491 50.6023 51.4601 50.4474 52.7581 50.2194C55.2012 49.7891 57.5964 49.1976 59.8062 48.0403C60.333 47.7623 60.8225 47.4205 61.2633 47.0228C61.9832 46.3774 61.9941 45.816 61.2633 45.1921C60.7001 44.6885 60.0614 44.2735 59.3699 43.9617C58.0196 43.4067 56.6148 42.9851 55.2252 42.5096C55.0725 42.4559 54.9089 42.4344 54.7562 42.3806C53.984 42.1095 53.6023 41.4857 53.7615 40.7608C53.7947 40.5875 53.8636 40.4227 53.9638 40.2767C54.0641 40.1306 54.1937 40.0064 54.3445 39.9116C54.4954 39.8169 54.6643 39.7537 54.8409 39.7258C55.0176 39.698 55.1981 39.7061 55.3714 39.7497C57.9891 40.3176 60.5391 41.0834 62.6878 42.7441C65.2575 44.7296 65.2444 47.4508 62.6878 49.445C60.7682 50.94 58.5061 51.7424 56.172 52.2737C53.9775 52.7728 51.7437 53.1041 49.5143 53.431C48.8599 53.5257 48.7312 53.7602 48.7334 54.3431C48.7552 58.3679 48.7465 62.3949 48.7443 66.4197C48.7443 68.0804 48.3843 68.4246 46.6719 68.4246C43.7634 68.4246 40.8549 68.4246 37.9463 68.4246C36.7291 68.4246 36.247 67.9685 36.2426 66.7854C36.2296 64.0491 36.2296 61.3121 36.2426 58.5744C36.2426 57.5225 36.7509 56.9482 37.6191 56.946C38.4873 56.9439 39.0174 57.529 39.0239 58.5658C39.037 60.8998 39.0239 63.2317 39.0239 65.6238H45.915V53.7924C45.4787 53.7924 45.0272 53.7817 44.5778 53.7924C38.9978 53.9688 33.4832 53.5192 28.1038 51.9919C26.5184 51.5202 24.977 50.9149 23.4967 50.1828C22.6789 49.7593 21.9481 49.1896 21.3415 48.5028C20.0457 47.0873 19.9803 45.2481 21.2651 43.8219C22.0488 42.9718 22.9711 42.2571 23.9941 41.7073C26.6925 40.2423 29.6832 39.6293 32.6935 39.1259C33.8409 38.9366 34.9992 38.8032 36.1837 38.6397V35.1484C35.8718 35.1334 35.586 35.1097 35.3003 35.1097C32.0892 35.1097 28.8782 35.1097 25.6672 35.1097C24.306 35.1097 23.861 34.6666 23.861 33.3264C23.861 30.375 23.861 27.4236 23.861 24.4723C23.861 23.231 24.3278 22.7513 25.5778 22.7513C36.8425 22.7513 48.1073 22.7513 59.3721 22.7513C60.6286 22.7513 61.1063 23.2289 61.1172 24.455C61.1172 27.4351 61.1172 30.4137 61.1172 33.3909C61.1172 34.6623 60.6504 35.1118 59.3284 35.1118C56.1436 35.1118 52.9595 35.1118 49.7761 35.1118L48.7857 35.1075ZM58.2945 25.5607H26.7077V32.3627H36.9734C38.6029 32.3627 39.013 32.7628 39.0152 34.3503C39.0152 39.5805 39.0152 44.8107 39.0152 50.0408C39.0152 50.3506 39.0414 50.6582 39.0588 50.9852H45.9521V49.9505C45.9521 44.7447 45.9521 39.5403 45.9521 34.3374C45.9521 32.7865 46.3753 32.3648 47.9153 32.3648H58.2945V25.5607ZM36.1707 41.4061C34.7593 41.6212 33.4155 41.7718 32.0871 42.0192C29.4367 42.5118 26.8102 43.1141 24.4936 44.5618C22.7485 45.6568 22.6983 46.6549 24.5241 47.6208C26.1486 48.4768 27.8652 49.1507 29.6417 49.63C31.7489 50.1979 33.9391 50.4689 36.1707 50.8841V41.4061Z" fill="white"/>
<path d="M8.00219 42.4215C8.00219 26.7052 19.2277 12.798 34.6938 9.36048C52.7995 5.33353 70.687 15.8139 75.7173 33.4039C81.2363 52.747 68.3922 72.6624 48.2316 76.0246C34.3012 78.3457 20.2835 72.0299 13.0194 60.1556C12.3083 58.994 12.365 58.1765 13.1808 57.714C13.9967 57.2515 14.6729 57.5957 15.3928 58.71C21.0644 67.4781 29.1116 72.5505 39.6064 73.5874C55.9909 75.205 70.9553 63.847 73.6974 47.8553C75.1192 39.7769 73.2673 31.471 68.5402 24.7259C63.8132 17.9807 56.5892 13.3358 48.4236 11.7913C31.1905 8.49356 14.2977 19.9656 11.2699 36.9942C10.5167 41.2611 10.6488 45.6343 11.6582 49.8494C11.9004 50.8841 11.3659 51.6521 10.4301 51.6951C9.67314 51.7295 9.19105 51.3445 8.96855 50.469C8.30086 47.8379 7.97612 45.1336 8.00219 42.4215Z" fill="white"/>
</g>
<defs>
<clipPath id="clip0_46_34">
<rect width="69" height="68" fill="white" transform="translate(8 8.5)"/>
</clipPath>
</defs>
</svg>
