<svg width="100" height="100" viewBox="0 0 100 100" fill="none" xmlns="http://www.w3.org/2000/svg">
<path d="M85.9606 73.8284C83.3333 76.0647 80.4762 77.7998 77.3892 79.0336C74.3678 80.2674 71.4121 80.8843 68.5222 80.8843C66.5517 80.8843 64.647 80.5759 62.8079 79.959C61.0345 79.2649 59.4581 78.2624 58.0788 76.9515C56.6995 75.6405 55.5829 73.9826 54.7291 71.9776C53.9409 69.8955 53.5468 67.505 53.5468 64.806C53.5468 61.5672 53.9409 58.5211 54.7291 55.6679C55.5172 52.7376 56.7323 49.5759 58.3744 46.1828C60.0164 42.7127 62.0525 38.8184 64.4828 34.5C66.913 30.1816 69.7701 25.0149 73.0542 19H90L79.6552 52.4291L85.9606 73.8284ZM42.4138 74.0597C39.7865 76.296 36.9294 78.0311 33.8424 79.2649C30.821 80.4216 27.8654 81 24.9754 81C23.0049 81 21.1002 80.6915 19.2611 80.0746C17.4877 79.3806 15.9113 78.3781 14.532 77.0672C13.1527 75.7562 12.0361 74.0983 11.1823 72.0933C10.3941 70.0112 10 67.6206 10 64.9216C10 61.6828 10.3941 58.6368 11.1823 55.7836C11.9704 52.8532 13.1855 49.6915 14.8276 46.2985C16.4696 42.8284 18.5057 38.9341 20.936 34.6157C23.3662 30.2973 26.2233 25.1306 29.5074 19.1157H46.4532L36.1084 52.5448L42.4138 74.0597Z" fill="#061521"/>
</svg>
