<svg width="91" height="90" viewBox="0 0 91 90" fill="none" xmlns="http://www.w3.org/2000/svg">
<rect x="0.333374" width="90" height="90" rx="20" fill="white"/>
<g clip-path="url(#clip0_203_271)">
<path d="M22.2287 59.6332C22.4103 60.9083 23.8558 62.2396 25.1338 62.3797L43.0184 62.4077C44.2544 62.5548 44.4849 63.9912 43.4793 64.6077L24.9033 64.6778C21.9424 64.2294 19.8613 61.7701 19.8334 58.7714V28.8608C19.9242 26.0372 21.7818 23.613 24.5891 23.0805C25.7064 22.8703 26.8447 22.9614 27.9761 22.9403C28.2694 18.3721 34.6313 18.3791 34.9246 22.9403H47.5576C47.823 21.9244 48.0464 20.9575 48.9263 20.2779C51.2518 18.4632 54.5899 20.0186 54.5759 22.9473C56.1891 22.9473 57.7883 22.8212 59.3037 23.4868C61.2731 24.3556 62.565 26.2894 62.7256 28.4334C63.0538 32.8054 62.4812 37.5978 62.7116 42.0189C62.5999 42.9298 61.5664 43.4062 60.8331 42.8317C60.7283 42.7476 60.435 42.3202 60.435 42.2501V34.5851H22.2287V59.6402V59.6332ZM31.0976 21.8824C30.0431 22.1206 30.1549 24.4467 30.2736 25.2735C30.4761 26.7729 32.3128 26.8569 32.6061 25.4557C32.7108 24.9442 32.7178 23.5429 32.648 23.0104C32.5362 22.1836 31.9566 21.6862 31.1046 21.8824H31.0976ZM51.9432 22.1066C51.3985 21.6231 50.2183 21.7983 50.0437 22.583C49.9599 22.9684 49.9599 25.3085 50.0437 25.6869C50.2742 26.7168 52.034 26.6748 52.2784 25.5748C52.3622 25.1824 52.3622 23.1926 52.2924 22.7792C52.2644 22.618 52.0549 22.2047 51.9362 22.0996L51.9432 22.1066ZM22.2287 28.1041C22.0541 29.3583 22.3614 30.9908 22.2287 32.287H60.2814L60.442 32.1258V28.5385C60.442 27.9149 59.8554 26.7589 59.4155 26.3034C58.0886 24.9442 56.2869 25.3996 54.5829 25.3295C54.3385 29.9468 48.0744 29.8417 47.5716 25.3295H34.9385C34.6522 29.8767 28.2763 29.9048 27.99 25.3365C26.7051 25.4206 25.3293 25.0913 24.1352 25.6588C23.2972 26.0582 22.3684 27.1722 22.2357 28.1041H22.2287Z" fill="#F58CC0"/>
<path d="M57.055 45.0454C67.2508 44.2466 74.1924 55.1487 69.1434 64.1099C64.2899 72.7279 51.6708 72.5947 46.9221 63.9278C42.4806 55.8353 47.8998 45.76 57.055 45.0454ZM57.5997 47.3295C49.5339 47.7358 44.9458 56.8162 49.4361 63.5915C53.9265 70.3667 63.9547 69.5399 67.4324 62.3933C70.9102 55.2468 65.505 46.9301 57.5997 47.3295Z" fill="#F58CC0"/>
<path d="M39.1356 38.081C39.9457 37.9479 42.4806 37.9689 43.3326 38.067C44.4151 38.2001 45.2391 39.097 45.3508 40.176C45.4486 41.0658 45.4486 43.2028 45.3508 44.0926C45.2601 44.8983 44.6665 45.7321 43.9123 46.0194C43.158 46.3066 40.4485 46.2996 39.5476 46.2085C38.6467 46.1174 37.7738 45.606 37.4246 44.7442C37.1034 43.9524 37.1034 40.6034 37.3339 39.7486C37.5643 38.8938 38.2976 38.2212 39.1356 38.074V38.081ZM43.0742 43.8123V40.4983L42.9136 40.3371H39.6035V43.8193H43.0742V43.8123Z" fill="#F58CC0"/>
<path d="M27.5151 38.0809C28.2973 37.9478 31.0208 37.9548 31.8239 38.0669C32.6829 38.186 33.6326 39.0828 33.7374 39.9586C33.8421 40.8345 33.8351 43.2727 33.7374 44.2046C33.6466 45.0453 33.0041 45.781 32.215 46.0473C31.4258 46.3135 28.828 46.2995 27.9341 46.2154C26.8238 46.1033 25.8391 45.3606 25.7064 44.2046C25.6156 43.4268 25.5877 40.4701 25.7344 39.7695C25.881 39.0688 26.7958 38.207 27.5291 38.0879L27.5151 38.0809ZM31.4538 40.337H27.983V43.8192H31.4538V40.337Z" fill="#F58CC0"/>
<path d="M27.4104 49.7117C28.1716 49.5785 31.2652 49.5785 32.0264 49.7117C32.8645 49.8518 33.6466 50.7556 33.7374 51.5894C33.8351 52.5212 33.8491 55.0155 33.7304 55.9264C33.6117 56.7882 32.6969 57.636 31.8379 57.727C30.8602 57.8321 28.5766 57.8321 27.6059 57.727C26.6352 57.6219 25.8042 56.7602 25.7064 55.8213C25.6087 54.8824 25.5947 52.3881 25.7134 51.4843C25.8252 50.6856 26.6143 49.8448 27.4104 49.7047V49.7117ZM31.4538 51.9677H27.983V55.4499H31.4538V51.9677Z" fill="#F58CC0"/>
<path d="M42.2572 55.4501C43.158 55.6462 43.4444 57.2998 42.3899 57.6501C41.922 57.8042 39.785 57.7972 39.2194 57.7342C38.116 57.6081 37.3478 56.6692 37.2221 55.6042C37.1174 54.7424 37.1174 52.171 37.3269 51.3863C37.5364 50.6016 38.1579 49.908 38.9401 49.7398C39.6663 49.5927 42.6692 49.5927 43.4444 49.6978C45.0226 49.922 44.7992 51.9398 43.5072 52.0379C43.3536 52.0519 43.2698 51.9749 43.2349 51.9749H39.5965V55.4571C40.3577 55.5692 41.5519 55.3029 42.2572 55.4571V55.4501Z" fill="#F58CC0"/>
<path d="M54.583 40.337H51.2728L51.1122 40.4981V44.0854C51.1122 44.1695 50.7351 44.6109 50.6234 44.681C49.9529 45.1364 49.0102 44.73 48.8565 43.9523C48.7239 43.3007 48.7588 40.7924 48.8426 40.0777C48.9683 39.0478 49.8203 38.193 50.8538 38.0669C51.6778 37.9688 54.3735 37.9478 55.1346 38.1019C56.252 38.3331 56.8735 39.314 56.9713 40.393C57.0621 41.3739 57.0481 42.8873 55.7213 42.8453C54.3944 42.8033 54.548 41.2688 54.583 40.337Z" fill="#F58CC0"/>
<path d="M58.0257 50.7977C58.6124 50.7416 59.1571 51.2531 59.2409 51.8136C59.4853 53.4181 59.0523 55.5551 59.2688 57.2226C59.3666 57.5449 60.882 58.764 61.2032 59.2054C62.1669 60.5226 60.8331 61.8539 59.5202 60.887C59.0942 60.5717 57.6766 59.1424 57.3484 58.715C57.2017 58.5188 57.062 58.3296 56.9992 58.0914C57.1668 56.1576 56.6849 53.5582 56.9782 51.7085C57.055 51.2391 57.5858 50.8397 58.0327 50.7977H58.0257Z" fill="#F58CC0"/>
</g>
<defs>
<clipPath id="clip0_203_271">
<rect width="51" height="51" fill="white" transform="translate(19.8334 19.5)"/>
</clipPath>
</defs>
</svg>
