<svg width="85" height="85" viewBox="0 0 85 85" fill="none" xmlns="http://www.w3.org/2000/svg">
<g clip-path="url(#clip0_206_16)">
<path d="M76 15.5685V17.7878C75.7945 18.5843 75.7052 19.3628 75.4103 20.1414C75.1512 20.8125 74.7045 21.5553 74.2399 22.1101C71.4791 25.3943 67.1012 28.2938 64.2332 31.5959C62.8127 33.0187 60.8292 31.4527 62.0086 29.7972C65.1535 26.5756 68.9417 23.6493 72.0242 20.4188C73.3911 18.987 73.4894 16.007 72.8372 14.2262C71.8008 11.3715 67.8249 11.4431 65.4483 12.4006C60.8471 16.7855 56.6746 21.6806 52.1984 26.2266C50.3222 27.7121 48.7855 27.1662 46.6769 26.7725C35.8751 24.75 25.1804 22.0117 14.3875 19.9355C12.958 19.8639 12.6364 21.949 13.7353 22.6828L36.9293 34.9427C39.4578 36.2045 40.0564 39.6856 38.198 41.7797L23.5812 57.5475C23.1344 57.8786 22.6966 58.0845 22.1338 57.8518L13.5209 54.1559C12.1807 54.0485 11.189 55.5698 12.2254 56.6347L21.8479 63.758L28.3879 72.6532C29.6477 73.9239 31.1934 72.7964 30.8449 71.114C29.9783 68.5367 28.1467 65.7536 27.3694 63.2032C27.012 62.0219 27.1728 61.8072 27.9948 61.0107C30.1748 58.8809 32.5693 56.948 34.7314 54.8002C36.0806 53.9232 37.5637 55.364 36.6881 56.76L30.2553 62.8452C31.1219 65.1361 32.471 67.436 33.293 69.718C33.7486 70.9887 33.9273 71.8388 33.4627 73.1543C32.9356 74.6488 31.7205 75.5884 30.2195 76H28.7811C27.7178 75.6779 26.9673 75.2662 26.2258 74.434C23.9475 71.8746 21.8925 67.5881 19.4266 65.4046C16.782 63.069 13.1992 61.1808 10.5278 58.863C9.70584 58.1471 9.33953 57.4043 9.01788 56.3842V54.9434C9.47354 53.0999 10.9031 51.5786 12.8687 51.4086C15.2006 51.2028 19.239 53.7801 21.5798 54.6123C21.83 54.7018 22.098 54.8808 22.3571 54.7555L35.9108 40.1689C36.8132 39.274 36.7149 37.9496 35.5356 37.4037C28.2807 33.2335 20.4094 29.7793 13.1992 25.5912C12.4666 25.1617 11.7161 24.759 11.189 24.0699C8.98215 21.1973 11.0728 16.7497 14.8075 17.1882L49.3841 24.4815C50.2597 24.4279 50.7153 23.7925 51.2871 23.2377C55.2362 19.4433 58.8368 14.5036 62.8573 10.8704C66.3686 7.70246 74.642 8.48996 75.6516 13.913L76.009 15.5864L76 15.5685Z" fill="#F58CC0"/>
<path d="M76 43.0415V56.6437L75.2763 60.1785C72.9801 67.6329 66.449 72.7785 59.6409 76.009H58.8546C51.028 72.34 43.0852 65.5747 42.4955 56.3216C42.2275 52.1425 42.6921 47.7038 42.4955 43.4979C42.4598 43.0146 42.7457 42.6835 43.0852 42.3882L59.3014 36.9026L74.9904 42.1556L76 43.0415ZM73.2392 44.4912L59.2924 39.802L45.2652 44.4912C45.5511 50.308 44.2467 56.5721 46.9271 61.9683C48.7318 65.5926 52.3592 68.9126 55.7276 71.0872C56.2904 71.4541 58.81 73.0291 59.3014 72.9933C59.6587 72.9664 61.2223 72.0357 61.6422 71.7941C66.4669 68.9752 71.5595 64.1339 72.8104 58.5051C73.7932 54.1112 72.9801 49.0104 73.2303 44.5002L73.2392 44.4912Z" fill="#F58CC0"/>
<path d="M68.6201 49.8872C69.3081 50.5673 69.049 51.319 68.5308 51.9991C66.038 55.2654 61.6601 58.2991 58.9887 61.5564C58.399 62.0934 57.3983 62.2634 56.8176 61.6191L50.894 54.0663C50.5902 52.7687 51.85 51.9364 53.0115 52.4734L57.988 58.4691L66.5026 49.9766C67.1191 49.4039 67.9947 49.2607 68.6112 49.8872H68.6201Z" fill="#F58CC0"/>
</g>
<defs>
<clipPath id="clip0_206_16">
<rect width="67" height="67" fill="white" transform="translate(9 9)"/>
</clipPath>
</defs>
</svg>
