<svg width="85" height="85" viewBox="0 0 85 85" fill="none" xmlns="http://www.w3.org/2000/svg">
<g clip-path="url(#clip0_203_517)">
<path d="M50.6179 27.0959H57.2627C59.8328 27.0959 62.591 29.8623 62.6537 32.4402L63.0925 39.6078C63.0925 39.6078 64.3463 39.6707 64.7224 39.7336C69.8 40.2995 73.4358 44.4492 73.7493 49.542C74 53.6917 74 59.8533 73.7493 64.0659C73.4358 69.033 70.1761 72.8683 65.2866 73.8114C49.9911 74.0629 34.6328 74.0629 19.3373 73.8114C14.5105 72.9312 11.0627 68.7815 10.8746 63.9402L13.006 32.0629C13.3194 29.6108 15.9522 27.0959 18.397 27.0959H25.0418C24.7911 22.8204 25.1672 18.9222 28.0508 15.527C33.6299 8.98809 43.9104 9.61683 48.5493 16.8474C50.6179 19.9911 50.7433 23.3863 50.6179 27.0959ZM47.4209 27.0959V22.6318C47.4209 21.5629 46.4806 19.4252 45.9164 18.545C42.1552 12.6977 33.3791 12.7605 29.7433 18.6707C28.1134 21.3114 28.1761 24.0779 28.3642 27.0959H47.4209ZM25.1045 30.3025H18.3343C17.394 30.3025 16.2657 31.6857 16.1403 32.6288C15.7015 42.4372 14.7612 52.1827 14.3851 61.9911C14.2597 64.506 14.1343 66.1408 15.8896 68.2156C16.7672 69.2845 18.8985 70.6677 20.3403 70.6677H33.7552C32.2508 69.033 31.1851 66.8324 30.997 64.6318C30.5582 59.2875 31.1851 53.2516 31.1224 47.9072C31.4985 44.2605 36.1373 39.6707 39.7731 39.6707H60.0209C59.7075 37.03 60.0209 34.2007 59.2687 31.6228C59.0806 31.1827 57.9522 30.3025 57.5134 30.3025H50.7433V33.5719C52.8119 33.4462 53 36.4641 50.9313 36.7156C50.3045 36.7785 47.3582 36.7785 46.8567 36.7156C45.2269 36.2126 45.6657 33.3204 47.4836 33.6348V30.3653H28.3015V33.4462C28.6149 33.7605 29.0537 33.6348 29.4925 33.8863C30.4328 34.5779 30.2448 36.2126 29.1164 36.6528C28.6149 36.8414 25.6687 36.8414 24.9791 36.7785C23.4746 36.6528 22.8478 34.8923 24.0388 33.9492C24.4776 33.5719 24.7911 33.7605 25.1672 33.4462V30.3653L25.1045 30.3025ZM40.7761 42.8773C37.6418 43.0031 34.5702 45.5809 34.194 48.7875C33.6299 53.7546 34.5702 59.6647 34.194 64.7575C34.6328 67.9013 37.203 70.3534 40.3373 70.7306C48.1105 70.2905 56.4478 71.2965 64.1582 70.7306C67.5433 70.4791 70.2388 67.7755 70.5522 64.4432C70.2388 59.539 70.9284 54.1947 70.5522 49.2905C70.2388 45.518 67.2299 43.1288 63.6567 42.8773C56.2597 42.3743 48.2358 43.1917 40.7761 42.8773Z" fill="#F58CC0"/>
<path d="M45.2269 47.2156C45.8537 47.0898 46.4179 47.3413 46.794 47.7815C47.4209 48.536 46.9821 51.6797 47.1074 52.8114C47.6089 57.4641 53.4388 59.1617 56.3224 55.4521C57.9522 53.3773 57.0746 51.0509 57.3254 48.7246C57.5761 46.6497 60.2716 46.5869 60.5224 48.7246C61.3373 55.0749 58.4537 61.2366 51.2448 60.6707C47.7343 60.4192 44.3492 57.0869 43.9731 53.5659C43.8477 52.6228 43.7851 49.039 43.9731 48.2216C44.0985 47.7815 44.7254 47.2156 45.1642 47.1527L45.2269 47.2156Z" fill="#F58CC0"/>
</g>
<defs>
<clipPath id="clip0_203_517">
<rect width="63" height="63" fill="white" transform="translate(11 11)"/>
</clipPath>
</defs>
</svg>
