<svg width="232" height="48" viewBox="0 0 232 48" fill="none" xmlns="http://www.w3.org/2000/svg">
<path d="M2.93867 28.371L33.7712 10.3968L33.9871 10.7632C35.6474 13.7451 37.424 16.7102 39.1341 19.6754C39.4976 20.2662 39.737 20.9252 39.8376 21.6121C39.9382 22.299 39.8979 22.9993 39.7191 23.67C39.5403 24.3408 39.2268 24.9677 38.7979 25.5126C38.369 26.0574 37.8337 26.5086 37.2248 26.8384L15.441 39.532C14.8532 39.8973 14.1973 40.1384 13.5133 40.2405C12.8294 40.3427 12.1319 40.3036 11.4635 40.1259C10.7951 39.9481 10.1699 39.6353 9.62625 39.2066C9.08256 38.778 8.63181 38.2425 8.3016 37.6329C6.57484 34.6678 4.85914 31.7026 3.15453 28.7375L2.93867 28.371ZM14.2955 31.3361L12.6351 32.2857C12.4767 32.3626 12.3358 32.4716 12.2213 32.6058C12.1069 32.7399 12.0212 32.8963 11.9698 33.0652C11.9183 33.2341 11.9022 33.4118 11.9224 33.5873C11.9426 33.7627 11.9987 33.932 12.0872 34.0847C12.1771 34.2331 12.2957 34.362 12.4361 34.4636C12.5764 34.5652 12.7357 34.6376 12.9044 34.6764C13.0731 34.7152 13.2479 34.7198 13.4184 34.6897C13.5888 34.6596 13.7516 34.5955 13.8969 34.5012L17.0848 32.6355C17.2485 32.5629 17.3952 32.4566 17.5154 32.3236C17.6356 32.1905 17.7266 32.0336 17.7825 31.8631C17.8385 31.6925 17.858 31.512 17.84 31.3333C17.8221 31.1547 17.7669 30.9817 17.6781 30.8258C17.5893 30.6699 17.4688 30.5345 17.3245 30.4282C17.1802 30.322 17.0154 30.2473 16.8405 30.209C16.6656 30.1708 16.4846 30.1697 16.3094 30.2061C16.1341 30.2424 15.9684 30.3153 15.8229 30.4199L14.2955 31.3361ZM20.9368 30.3866L21.5511 30.0202C21.8418 29.8523 22.054 29.5754 22.1412 29.2505C22.2284 28.9256 22.1834 28.5793 22.016 28.2877C21.8487 27.9961 21.5728 27.7831 21.2489 27.6957C20.9251 27.6082 20.5799 27.6534 20.2893 27.8213C19.8576 28.0378 19.4591 28.2877 19.044 28.5376C18.7963 28.7273 18.6262 29.0013 18.5657 29.3081C18.5052 29.6149 18.5585 29.9332 18.7156 30.2033C18.8726 30.4734 19.1226 30.6767 19.4185 30.7749C19.7144 30.8731 20.0359 30.8594 20.3224 30.7365L20.9368 30.3866Z" fill="#1ACA83"/>
<path d="M32.4929 8.04692L1.66034 26.0045C0.695751 24.7807 0.117579 23.2957 0 21.74C0.00604996 21.0442 0.156841 20.3573 0.442751 19.7234C0.728661 19.0894 1.14339 18.5224 1.66034 18.0585C1.95304 17.7884 2.27626 17.5536 2.62337 17.3588C9.90673 13.0943 17.2122 8.83543 24.5398 4.58204C25.1195 4.23126 25.7633 4.00061 26.4334 3.90378C27.1034 3.80695 27.786 3.84588 28.4407 4.01826C29.0955 4.19065 29.7091 4.49297 30.2454 4.9074C30.7817 5.32182 31.2298 5.83994 31.5631 6.43108C31.862 6.96414 32.1608 7.58049 32.4929 8.04692Z" fill="#1ACA83"/>
<path d="M45.1414 16.6925H51.019V28.3533L62.2263 16.6925H69.3159L59.7524 26.3543L69.7144 40.2639H62.575L55.203 29.5693L51.0024 33.8505V40.2639H45.1248L45.1414 16.6925Z" fill="#061521"/>
<path d="M78.8131 40.4638C72.6035 40.4638 68.3696 37.1321 68.3696 31.3517C68.3696 25.5713 72.6035 22.2731 78.8131 22.2731C84.1096 22.2731 89.4393 24.8051 89.2401 31.585L74.7619 33.7172C75.3762 35.0832 76.6713 35.6996 78.8131 35.6996C81.3535 35.6996 82.6817 34.8833 83.1964 33.1675H89.1405C88.3435 37.8651 84.3587 40.4638 78.8131 40.4638ZM83.2628 29.7026C82.7813 27.8535 81.4531 27.0373 78.8463 27.0373C75.7747 27.0373 73.5665 28.5032 73.4834 31.3517L83.2628 29.7026Z" fill="#061521"/>
<path d="M97.1598 47.3603C94.4777 47.6653 91.7624 47.2753 89.2732 46.2275L90.7675 42.113C92.5669 42.7496 94.5013 42.9016 96.3776 42.5538C98.2538 42.2059 100.006 41.3704 101.46 40.1306L99.7998 40.4305C99.3289 40.5758 98.8339 40.6253 98.3437 40.5762C97.8535 40.5271 97.378 40.3803 96.945 40.1445C96.5121 39.9087 96.1304 39.5886 95.8223 39.2029C95.5142 38.8172 95.2859 38.3738 95.1508 37.8984L89.2068 22.4396H95.6655L100.414 35.6662H100.912L105.727 22.4396H112.086L104.366 39.8808C102.523 44.1286 100.481 46.694 97.1598 47.3603Z" fill="#061521"/>
<path d="M133.123 16.6925V21.69H124.008V40.3305H118.13V21.6233H109.048V16.6259L133.123 16.6925Z" fill="#061521"/>
<path d="M140.163 40.4638C133.953 40.4638 129.719 37.1321 129.719 31.3517C129.719 25.5713 133.953 22.2731 140.163 22.2731C145.459 22.2731 150.789 24.8051 150.573 31.585L136.095 33.7172C136.709 35.0832 138.004 35.6996 140.163 35.6996C142.686 35.6996 144.015 34.8833 144.529 33.1675H150.473C149.693 37.8651 145.791 40.4638 140.163 40.4638ZM144.596 29.7026C144.131 27.8535 142.786 27.0373 140.196 27.0373C137.124 27.0373 134.899 28.5032 134.833 31.3517L144.596 29.7026Z" fill="#061521"/>
<path d="M155.288 27.0373H151.968V22.4396H155.288V16.6925H162.395C162.395 18.6082 161.581 19.5578 157.414 22.4396H167.176V27.0373H161.199V40.1639H155.322L155.288 27.0373Z" fill="#061521"/>
<path d="M179.878 27.1372C176.906 27.1372 175.478 28.6864 175.412 31.1518V40.1639H169.534V16.6925H175.412V27.9201H175.827C176.74 24.2553 178.932 22.273 182.584 22.273C186.752 22.273 190.239 25.2882 190.371 31.1185V40.1639H184.461V31.1518C184.394 28.4365 182.95 27.1372 179.878 27.1372Z" fill="#061521"/>
<path d="M203.206 40.4638C196.996 40.4638 192.762 37.1321 192.762 31.3517C192.762 25.5713 196.996 22.2731 203.206 22.2731C208.502 22.2731 213.832 24.8051 213.633 31.585L199.155 33.7172C199.769 35.0832 201.064 35.6996 203.206 35.6996C205.746 35.6996 207.074 34.8833 207.589 33.1675H213.517C212.736 37.8651 208.785 40.4638 203.206 40.4638ZM207.656 29.7026C207.174 27.8535 205.846 27.0373 203.239 27.0373C200.167 27.0373 197.959 28.5032 197.876 31.3517L207.656 29.7026Z" fill="#061521"/>
<path d="M221.901 31.1518V40.1639H216.024V22.4396H221.901V27.9202H222.3C223.229 24.2554 225.405 22.2731 229.024 22.2731H230.336V27.9202C229.09 27.3594 227.732 27.0916 226.368 27.1372C223.395 27.1372 221.901 28.6864 221.901 31.1518Z" fill="#061521"/>
<path d="M227.518 13.1577C225.525 13.1577 224.156 12.1948 223.99 10.7173H225.467C225.708 11.4644 226.422 11.9541 227.567 11.9541C228.771 11.9541 229.626 11.3813 229.626 10.5679V10.5513C229.626 9.94531 229.169 9.52197 228.065 9.25635L226.679 8.92432C225.002 8.52588 224.247 7.79541 224.247 6.50879V6.50049C224.247 5.01465 225.675 3.89404 227.576 3.89404C229.452 3.89404 230.755 4.83203 230.954 6.29297H229.535C229.344 5.5874 228.646 5.09766 227.567 5.09766C226.505 5.09766 225.725 5.64551 225.725 6.43408V6.45068C225.725 7.05664 226.173 7.43848 227.227 7.6958L228.605 8.02783C230.29 8.43457 231.104 9.16504 231.104 10.4434V10.46C231.104 12.0537 229.551 13.1577 227.518 13.1577Z" fill="#061521"/>
<path d="M217.308 13.1577C215.042 13.1577 213.556 11.3232 213.556 8.53418V8.51758C213.556 5.71191 215.033 3.89404 217.308 3.89404C218.536 3.89404 219.607 4.5083 220.097 5.46289H220.229V0.499023H221.674V13H220.229V11.5723H220.097C219.549 12.5684 218.553 13.1577 217.308 13.1577ZM217.64 11.8794C219.267 11.8794 220.263 10.6011 220.263 8.53418V8.51758C220.263 6.45068 219.267 5.17236 217.64 5.17236C216.004 5.17236 215.033 6.43408 215.033 8.51758V8.53418C215.033 10.6177 216.004 11.8794 217.64 11.8794Z" fill="#061521"/>
<path d="M207.778 13V4.05176H209.223V5.37988H209.355C209.696 4.44189 210.534 3.89404 211.746 3.89404C212.02 3.89404 212.327 3.92725 212.468 3.95215V5.35498C212.169 5.30518 211.896 5.27197 211.58 5.27197C210.202 5.27197 209.223 6.14355 209.223 7.45508V13H207.778Z" fill="#061521"/>
<path d="M200.855 13.1577C199.154 13.1577 197.867 12.1284 197.867 10.5015V10.4849C197.867 8.89111 199.046 7.96973 201.129 7.84521L203.694 7.6875V6.87402C203.694 5.77002 203.022 5.17236 201.686 5.17236C200.615 5.17236 199.909 5.5708 199.677 6.26807L199.668 6.29297H198.224L198.232 6.24316C198.465 4.84033 199.826 3.89404 201.735 3.89404C203.918 3.89404 205.139 5.01465 205.139 6.87402V13H203.694V11.6802H203.562C202.997 12.6348 202.059 13.1577 200.855 13.1577ZM199.345 10.4683C199.345 11.373 200.117 11.9043 201.154 11.9043C202.624 11.9043 203.694 10.9414 203.694 9.66309V8.84961L201.304 8.99902C199.942 9.08203 199.345 9.56348 199.345 10.4517V10.4683Z" fill="#061521"/>
<path d="M191.235 13.2822C187.981 13.2822 185.947 10.875 185.947 7.02344V7.00684C185.947 3.14697 187.973 0.739746 191.227 0.739746C193.75 0.739746 195.717 2.3252 196.074 4.62451L196.066 4.64111H194.563L194.555 4.62451C194.157 3.08887 192.878 2.11768 191.227 2.11768C188.927 2.11768 187.483 4.01025 187.483 7.00684V7.02344C187.483 10.02 188.927 11.9043 191.235 11.9043C192.903 11.9043 194.173 11.0493 194.547 9.67139L194.563 9.65479H196.074V9.67139C195.676 11.8628 193.783 13.2822 191.235 13.2822Z" fill="#061521"/>
</svg>
