<svg width="277" height="59" viewBox="0 0 277 59" fill="none" xmlns="http://www.w3.org/2000/svg">
<path d="M3.50537 36.2264L40.2841 14.7861L40.5416 15.2233C42.5221 18.7801 44.6413 22.3171 46.6813 25.854C47.1149 26.5587 47.4004 27.3449 47.5204 28.1642C47.6404 28.9836 47.5923 29.8189 47.379 30.619C47.1658 31.419 46.7918 32.1669 46.2802 32.8168C45.7686 33.4667 45.13 34.0049 44.4037 34.3984L18.4189 49.5397C17.7177 49.9755 16.9352 50.2631 16.1194 50.3849C15.3035 50.5067 14.4715 50.4602 13.6742 50.2481C12.8769 50.036 12.1312 49.6629 11.4827 49.1516C10.8341 48.6403 10.2964 48.0015 9.90255 47.2744C7.84279 43.7375 5.79621 40.2005 3.76285 36.6636L3.50537 36.2264ZM17.0524 39.7634L15.0718 40.896C14.8828 40.9878 14.7148 41.1179 14.5782 41.2779C14.4417 41.4379 14.3395 41.6245 14.2781 41.8259C14.2168 42.0274 14.1975 42.2394 14.2216 42.4486C14.2457 42.6579 14.3127 42.8599 14.4182 43.042C14.5254 43.219 14.667 43.3727 14.8344 43.494C15.0018 43.6152 15.1918 43.7015 15.3931 43.7478C15.5943 43.7941 15.8028 43.7995 16.0061 43.7636C16.2095 43.7277 16.4036 43.6512 16.577 43.5388L20.3797 41.3133C20.5749 41.2267 20.7499 41.1 20.8933 40.9413C21.0366 40.7825 21.1452 40.5954 21.2119 40.3919C21.2786 40.1884 21.302 39.9732 21.2805 39.76C21.2591 39.5469 21.1933 39.3407 21.0874 39.1547C20.9814 38.9687 20.8377 38.8072 20.6656 38.6804C20.4935 38.5537 20.2968 38.4646 20.0882 38.4189C19.8796 38.3733 19.6637 38.3721 19.4547 38.4154C19.2456 38.4588 19.0479 38.5457 18.8744 38.6705L17.0524 39.7634ZM24.9745 38.6307L25.7073 38.1937C26.054 37.9934 26.3072 37.6631 26.4112 37.2756C26.5152 36.888 26.4615 36.4749 26.2619 36.1271C26.0623 35.7793 25.7331 35.5252 25.3468 35.4209C24.9606 35.3166 24.5488 35.3705 24.2021 35.5707C23.6871 35.8291 23.2118 36.1271 22.7167 36.4251C22.4212 36.6515 22.2183 36.9784 22.1461 37.3443C22.074 37.7102 22.1376 38.0899 22.3249 38.4121C22.5122 38.7343 22.8104 38.9768 23.1634 39.0939C23.5164 39.211 23.8998 39.1947 24.2417 39.0481L24.9745 38.6307Z" fill="#1ACA83"/>
<path d="M38.7593 11.9835L1.98054 33.4039C0.829929 31.9441 0.140254 30.1728 0 28.3171C0.00721672 27.4871 0.187089 26.6678 0.528137 25.9116C0.869186 25.1554 1.36389 24.479 1.98054 23.9257C2.32969 23.6035 2.71525 23.3234 3.12929 23.0911C11.8173 18.0043 20.5316 12.9241 29.2724 7.85046C29.9639 7.43204 30.7319 7.15691 31.5311 7.0414C32.3304 6.9259 33.1446 6.97234 33.9257 7.17797C34.7067 7.38359 35.4387 7.74422 36.0784 8.23856C36.7181 8.7329 37.2526 9.35093 37.6502 10.0561C38.0067 10.6919 38.3632 11.4271 38.7593 11.9835Z" fill="#1ACA83"/>
<path d="M53.847 22.2979H60.8582V36.2072L74.2269 22.2979H82.6838L71.2758 33.8227L83.1591 50.4146H74.6428L65.8491 37.6578L60.8384 42.7645V50.4146H53.8272L53.847 22.2979Z" fill="white"/>
<path d="M94.0126 50.6527C86.6053 50.6527 81.5549 46.6786 81.5549 39.7835C81.5549 32.8884 86.6053 28.9541 94.0126 28.9541C100.331 28.9541 106.688 31.9744 106.45 40.0617L89.18 42.6051C89.9128 44.2345 91.4577 44.9697 94.0126 44.9697C97.0428 44.9697 98.6272 43.996 99.2412 41.9494H106.332C105.381 47.5529 100.628 50.6527 94.0126 50.6527ZM99.3204 37.8163C98.7461 35.6107 97.1616 34.637 94.0522 34.637C90.3882 34.637 87.7541 36.3856 87.655 39.7835L99.3204 37.8163Z" fill="white"/>
<path d="M115.898 58.8796C112.698 59.2434 109.459 58.7782 106.49 57.5284L108.272 52.6204C110.419 53.3798 112.726 53.5611 114.964 53.1462C117.202 52.7313 119.293 51.7346 121.027 50.2558L119.047 50.6134C118.485 50.7867 117.894 50.8459 117.31 50.7873C116.725 50.7287 116.158 50.5536 115.641 50.2723C115.125 49.9911 114.669 49.6092 114.302 49.1492C113.935 48.6891 113.662 48.1601 113.501 47.5932L106.411 29.1533H114.115L119.779 44.9305H120.374L126.117 29.1533H133.703L124.493 49.9577C122.295 55.0247 119.859 58.0848 115.898 58.8796Z" fill="white"/>
<path d="M158.796 22.2973V28.2584H147.923V50.4935H140.912V28.1789H130.078V22.2178L158.796 22.2973Z" fill="white"/>
<path d="M167.194 50.6527C159.786 50.6527 154.736 46.6786 154.736 39.7835C154.736 32.8884 159.786 28.9541 167.194 28.9541C173.511 28.9541 179.869 31.9744 179.612 40.0617L162.341 42.6051C163.074 44.2345 164.619 44.9697 167.194 44.9697C170.204 44.9697 171.788 43.996 172.402 41.9494H179.493C178.562 47.5529 173.908 50.6527 167.194 50.6527ZM172.482 37.8163C171.927 35.6107 170.323 34.637 167.233 34.637C163.569 34.637 160.915 36.3856 160.836 39.7835L172.482 37.8163Z" fill="white"/>
<path d="M185.236 34.6374H181.275V29.1532H185.236V22.2979H193.713C193.713 24.583 192.743 25.7156 187.771 29.1532H199.417V34.6374H192.287V50.2954H185.276L185.236 34.6374Z" fill="white"/>
<path d="M214.568 34.7566C211.023 34.7566 209.32 36.6046 209.241 39.5454V50.2954H202.229V22.2979H209.241V35.6906H209.736C210.825 31.319 213.439 28.9545 217.796 28.9545C222.768 28.9545 226.927 32.551 227.085 39.5057V50.2954H220.035V39.5454C219.955 36.3065 218.232 34.7566 214.568 34.7566Z" fill="white"/>
<path d="M242.395 50.6527C234.988 50.6527 229.937 46.6786 229.937 39.7835C229.937 32.8884 234.988 28.9541 242.395 28.9541C248.713 28.9541 255.07 31.9744 254.833 40.0617L237.562 42.6051C238.295 44.2345 239.84 44.9697 242.395 44.9697C245.425 44.9697 247.01 43.996 247.624 41.9494H254.694C253.763 47.5529 249.049 50.6527 242.395 50.6527ZM247.703 37.8163C247.128 35.6107 245.544 34.637 242.434 34.637C238.77 34.637 236.136 36.3856 236.037 39.7835L247.703 37.8163Z" fill="white"/>
<path d="M264.696 39.5451V50.295H257.684V29.1528H264.696V35.6902H265.171C266.28 31.3187 268.875 28.9541 273.192 28.9541H274.757V35.6902C273.27 35.0212 271.651 34.7018 270.023 34.7563C266.478 34.7563 264.696 36.6042 264.696 39.5451Z" fill="white"/>
<path d="M235.977 16.2822C232.723 16.2822 230.689 13.875 230.689 10.0234V10.0068C230.689 6.14697 232.715 3.73975 235.969 3.73975C238.492 3.73975 240.459 5.3252 240.816 7.62451L240.808 7.64111H239.305L239.297 7.62451C238.899 6.08887 237.62 5.11768 235.969 5.11768C233.669 5.11768 232.225 7.01025 232.225 10.0068V10.0234C232.225 13.02 233.669 14.9043 235.977 14.9043C237.645 14.9043 238.915 14.0493 239.289 12.6714L239.305 12.6548H240.816V12.6714C240.418 14.8628 238.525 16.2822 235.977 16.2822ZM245.597 16.1577C243.896 16.1577 242.609 15.1284 242.609 13.5015V13.4849C242.609 11.8911 243.788 10.9697 245.871 10.8452L248.436 10.6875V9.87402C248.436 8.77002 247.764 8.17236 246.428 8.17236C245.357 8.17236 244.651 8.5708 244.419 9.26807L244.41 9.29297H242.966L242.974 9.24316C243.207 7.84033 244.568 6.89404 246.477 6.89404C248.66 6.89404 249.881 8.01465 249.881 9.87402V16H248.436V14.6802H248.304C247.739 15.6348 246.801 16.1577 245.597 16.1577ZM244.087 13.4683C244.087 14.373 244.859 14.9043 245.896 14.9043C247.366 14.9043 248.436 13.9414 248.436 12.6631V11.8496L246.046 11.999C244.684 12.082 244.087 12.5635 244.087 13.4517V13.4683ZM252.52 16V7.05176H253.965V8.37988H254.097C254.438 7.44189 255.276 6.89404 256.488 6.89404C256.762 6.89404 257.069 6.92725 257.21 6.95215V8.35498C256.911 8.30518 256.637 8.27197 256.322 8.27197C254.944 8.27197 253.965 9.14355 253.965 10.4551V16H252.52ZM262.05 16.1577C259.783 16.1577 258.298 14.3232 258.298 11.5342V11.5176C258.298 8.71191 259.775 6.89404 262.05 6.89404C263.278 6.89404 264.349 7.5083 264.839 8.46289H264.971V3.49902H266.416V16H264.971V14.5723H264.839C264.291 15.5684 263.295 16.1577 262.05 16.1577ZM262.382 14.8794C264.009 14.8794 265.005 13.6011 265.005 11.5342V11.5176C265.005 9.45068 264.009 8.17236 262.382 8.17236C260.746 8.17236 259.775 9.43408 259.775 11.5176V11.5342C259.775 13.6177 260.746 14.8794 262.382 14.8794ZM272.26 16.1577C270.267 16.1577 268.898 15.1948 268.732 13.7173H270.209C270.45 14.4644 271.164 14.9541 272.309 14.9541C273.513 14.9541 274.368 14.3813 274.368 13.5679V13.5513C274.368 12.9453 273.911 12.522 272.807 12.2563L271.421 11.9243C269.744 11.5259 268.989 10.7954 268.989 9.50879V9.50049C268.989 8.01465 270.417 6.89404 272.318 6.89404C274.194 6.89404 275.497 7.83203 275.696 9.29297H274.277C274.086 8.5874 273.388 8.09766 272.309 8.09766C271.247 8.09766 270.467 8.64551 270.467 9.43408V9.45068C270.467 10.0566 270.915 10.4385 271.969 10.6958L273.347 11.0278C275.032 11.4346 275.845 12.165 275.845 13.4434V13.46C275.845 15.0537 274.293 16.1577 272.26 16.1577Z" fill="white"/>
</svg>
