<svg width="40" height="40" viewBox="0 0 40 40" fill="none" xmlns="http://www.w3.org/2000/svg">
<path d="M27.5 20C27.5 20.3315 27.3683 20.6495 27.1339 20.8839C26.8995 21.1183 26.5815 21.25 26.25 21.25H13.75C13.4185 21.25 13.1005 21.1183 12.8661 20.8839C12.6317 20.6495 12.5 20.3315 12.5 20C12.5 19.6685 12.6317 19.3505 12.8661 19.1161C13.1005 18.8817 13.4185 18.75 13.75 18.75H26.25C26.5815 18.75 26.8995 18.8817 27.1339 19.1161C27.3683 19.3505 27.5 19.6685 27.5 20ZM36.25 20C36.25 23.2139 35.297 26.3557 33.5114 29.028C31.7258 31.7003 29.1879 33.7831 26.2186 35.013C23.2493 36.243 19.982 36.5648 16.8298 35.9378C13.6776 35.3107 10.7821 33.7631 8.50952 31.4905C6.23692 29.2179 4.68926 26.3224 4.06225 23.1702C3.43524 20.018 3.75704 16.7507 4.98696 13.7814C6.21689 10.8121 8.29969 8.27419 10.972 6.48862C13.6443 4.70305 16.7861 3.75 20 3.75C24.3084 3.75455 28.439 5.46806 31.4855 8.51454C34.5319 11.561 36.2455 15.6916 36.25 20ZM33.75 20C33.75 17.2805 32.9436 14.6221 31.4327 12.3609C29.9218 10.0997 27.7744 8.33736 25.2619 7.29666C22.7494 6.25595 19.9848 5.98366 17.3175 6.5142C14.6503 7.04475 12.2003 8.35431 10.2773 10.2773C8.35432 12.2003 7.04476 14.6503 6.51421 17.3175C5.98366 19.9847 6.25596 22.7494 7.29666 25.2619C8.33737 27.7744 10.0997 29.9218 12.3609 31.4327C14.6221 32.9436 17.2805 33.75 20 33.75C23.6455 33.7459 27.1404 32.2959 29.7182 29.7182C32.2959 27.1404 33.7459 23.6455 33.75 20Z" fill="#138BBD"/>
</svg>
